<svg version="1.1" id="Layer_1" xmlns="http://www.w3.org/2000/svg" xmlns:xlink="http://www.w3.org/1999/xlink" x="0px" y="0px"
	 width="100%" viewBox="0 0 500 500" enable-background="new 0 0 500 500" xml:space="preserve">
<path fill="#000000" opacity="1.000000" stroke="none"
	d="
M501.000000,52.000011
	C501.000000,201.634384 501.000000,351.268768 501.000000,500.951569
	C334.401581,500.951569 167.803146,500.951569 1.102354,500.951569
	C1.102354,334.437592 1.102354,167.875076 1.102354,1.156281
	C167.666550,1.156281 334.333252,1.156281 501.000000,1.156281
	C501.000000,16.076307 501.000000,31.073141 500.611816,46.535091
	C492.983551,50.667770 485.837402,54.537159 478.483795,57.960907
	C463.146942,65.101585 447.830414,72.313980 432.254486,78.903503
	C421.385712,83.501625 410.099915,87.113983 398.617615,91.091789
	C395.823120,91.733498 393.411407,92.450073 390.626160,93.195511
	C386.843933,94.482910 383.479889,95.884003 380.017273,96.970886
	C372.333832,99.382629 364.600891,101.636795 356.486053,103.975967
	C354.055878,104.386719 352.027771,104.776688 349.609253,105.211807
	C341.249908,107.491478 333.236206,109.579407 325.323181,111.996864
	C314.937836,115.169601 304.726318,118.944168 294.266968,121.833214
	C282.158569,125.177750 271.436920,131.050705 261.347839,138.263916
	C245.690338,149.458221 238.952026,165.235519 238.089264,184.418747
	C236.675842,192.461243 234.921005,200.039673 234.097763,207.717972
	C232.715164,220.613480 229.873230,233.110550 224.952057,245.067337
	C221.718002,252.924988 217.878677,260.537659 210.671661,266.571289
	C205.307526,259.823395 200.099579,253.368271 195.004028,246.825592
	C191.976166,242.937851 187.587326,239.766083 187.991287,233.968201
	C188.397278,228.141266 185.635590,223.954346 180.858810,221.022385
	C178.610535,219.642426 178.178772,218.345840 178.804794,215.581497
	C179.587418,212.125595 178.886856,208.354660 179.068115,204.731827
	C179.144577,203.203430 179.500198,201.482864 180.320847,200.240707
	C182.033844,197.647919 184.140472,195.315186 186.085388,192.875626
	C188.512543,194.715759 189.826553,195.317535 191.078796,196.028152
	C197.134399,199.464584 207.980286,198.930099 212.321396,193.857895
	C215.609299,190.016251 217.914871,189.253860 220.340790,192.287140
	C223.789291,189.393890 227.047852,186.659988 230.253510,183.970474
	C228.881195,182.374985 227.832809,181.156097 226.728638,179.872360
	C227.513077,179.045959 228.115753,178.482178 228.637115,177.851212
	C237.926712,166.608490 237.876495,158.895523 230.607407,150.378693
	C223.734482,142.326019 215.612930,135.339066 207.942719,127.594559
	C206.935471,126.523674 206.026077,125.741592 204.990738,124.644958
	C196.502548,115.979233 187.983246,107.777908 179.827393,99.229820
	C173.208801,92.292931 160.715881,89.275734 151.645355,99.009361
	C149.764664,100.235626 148.920074,103.416626 146.057327,100.605865
	C145.565430,99.609535 145.125397,98.960190 144.685364,98.310844
	C141.923599,100.898415 138.803177,103.223785 136.608398,106.225868
	C135.907364,107.184761 137.660339,109.937744 138.008728,111.006012
	C135.347198,115.577934 131.856552,119.596237 130.668625,124.207710
	C129.619614,128.279953 128.000336,131.167068 124.911331,133.648483
	C124.070435,134.323990 123.713272,135.572632 122.930931,136.355103
	C119.641739,139.644821 117.157425,144.104309 111.842262,144.607986
	C105.939461,145.167374 101.798187,148.621414 97.852921,152.610397
	C88.362907,162.205582 78.809074,171.738083 69.232819,181.247360
	C64.750801,185.698029 61.530964,190.712067 60.920807,197.201431
	C60.815113,198.325500 59.858673,199.514404 59.009041,200.398300
	C55.549549,203.997391 52.058659,207.575684 48.399750,210.967911
	C47.316849,211.971893 45.660568,212.376999 44.239456,212.992905
	C40.329849,214.687347 35.759315,215.589142 32.661736,218.227097
	C29.297220,221.092346 27.181604,221.973007 24.588463,218.054565
	C15.357024,226.821335 15.357024,226.821335 18.952333,231.257126
	C5.527791,244.585785 8.651237,254.739258 17.348316,263.709625
	C33.118973,279.975891 49.340939,295.804169 65.341240,311.848450
	C73.792229,320.322662 85.654388,320.600281 94.332047,312.173492
	C95.144409,311.384613 95.978767,310.618408 96.089577,310.513977
	C98.931190,311.254608 101.864571,312.943085 102.984932,312.130798
	C105.873360,310.036682 107.959862,306.836456 110.516281,303.906708
	C105.954239,300.612610 106.018326,297.954559 110.754524,295.598785
	C111.488541,295.233643 111.812523,294.041870 112.323341,293.230652
	C117.468483,285.059448 117.031776,277.171509 110.632530,269.741455
	C112.877464,267.561829 114.590736,265.427307 116.754318,263.954193
	C118.344788,262.871307 120.493820,262.299805 122.448769,262.129364
	C125.891068,261.829315 129.554535,262.667358 132.786484,261.786011
	C135.481995,261.050934 136.799591,261.720398 137.930313,263.629486
	C141.058945,268.911743 145.777100,270.914154 151.717728,271.090576
	C153.653961,271.148071 155.916519,271.807373 157.419922,272.976044
	C167.436737,280.762482 177.715179,288.292267 187.082413,296.813690
	C198.094162,306.831177 208.404007,317.638641 218.739456,328.371948
	C222.890381,332.682678 226.457825,337.591095 230.018143,342.428192
	C241.862518,358.520142 253.139450,375.051910 265.480133,390.749847
	C277.051178,405.468781 290.841400,418.126617 306.158020,429.001709
	C315.503937,435.637543 324.920807,442.173615 334.317749,448.737396
	C341.304871,453.617950 348.268036,457.506378 357.591064,455.147308
	C369.828979,452.050659 376.946991,437.828949 371.587433,427.566162
	C366.622650,418.059235 360.133636,409.293732 353.820953,400.559387
	C346.290527,390.140076 338.661926,379.735138 330.317169,369.972504
	C311.750031,348.250671 287.803772,333.076263 264.708435,316.811768
	C253.395065,308.844513 243.205841,299.281006 232.507843,290.439941
	C232.817490,290.024475 233.127151,289.609039 233.436798,289.193573
	C282.679749,295.443970 326.105682,281.578857 366.185272,251.609253
	C360.307617,248.599594 355.650696,246.215027 349.843506,243.241455
	C361.379456,240.146332 371.291534,236.538528 380.285797,230.446426
	C389.458893,224.233139 396.887939,216.594055 403.877411,207.113602
	C397.061584,205.881912 391.208435,204.824203 385.355286,203.766495
	C385.228485,203.420166 385.101685,203.073837 384.974884,202.727524
	C386.996552,201.857452 389.018219,200.987396 391.421051,200.062805
	C392.134766,200.001587 392.519165,200.103302 392.792480,199.972626
	C407.554138,192.915558 420.085114,182.875061 430.741119,170.603378
	C435.963989,164.588638 440.320465,157.821594 445.616699,150.653900
	C436.409576,149.812180 428.352478,149.075592 419.126465,148.232147
	C426.337891,143.593552 432.446167,140.058350 438.125519,135.932770
	C451.605743,126.140465 463.228485,114.429108 473.012115,100.913155
	C482.847900,87.325249 489.931274,72.278236 496.612671,56.990860
	C497.457703,55.057404 499.508087,53.650749 501.000000,52.000011
z"/>
<path fill="#FFFFFF" opacity="1.000000" stroke="none"
	d="
M356.888153,103.955200
	C364.600891,101.636795 372.333832,99.382629 380.017273,96.970886
	C383.479889,95.884003 386.843933,94.482910 390.626343,93.622589
	C391.000031,94.517670 391.050781,95.020615 390.992035,95.510429
	C390.514771,99.490891 391.976562,101.323067 396.260742,101.061592
	C400.761108,100.786926 400.012573,97.707466 399.932922,94.992508
	C399.895264,93.709213 399.327789,92.441460 399.000397,91.166664
	C410.099915,87.113983 421.385712,83.501625 432.254486,78.903503
	C447.830414,72.313980 463.146942,65.101585 478.483795,57.960907
	C485.837402,54.537159 492.983551,50.667770 500.611816,47.000107
	C501.000000,48.388889 501.000000,49.777779 501.000000,51.583344
	C499.508087,53.650749 497.457703,55.057404 496.612671,56.990860
	C489.931274,72.278236 482.847900,87.325249 473.012115,100.913155
	C463.228485,114.429108 451.605743,126.140465 438.125519,135.932770
	C432.446167,140.058350 426.337891,143.593552 419.126465,148.232147
	C428.352478,149.075592 436.409576,149.812180 445.616699,150.653900
	C440.320465,157.821594 435.963989,164.588638 430.741119,170.603378
	C420.085114,182.875061 407.554138,192.915558 392.792480,199.972626
	C392.519165,200.103302 392.134766,200.001587 391.416016,199.684235
	C391.448090,198.539200 391.897614,197.732437 392.278259,196.894394
	C393.153900,194.966507 395.179779,192.399658 394.566895,191.236526
	C393.704620,189.599930 390.874847,188.999985 389.029694,187.621384
	C401.533813,180.834579 412.374512,172.555786 421.652496,161.153610
	C408.308380,160.396118 396.002899,159.788864 383.714172,158.939026
	C380.435699,158.712311 377.208588,157.743164 373.969116,156.725479
	C373.638794,154.853256 373.297241,153.370422 373.127686,151.540588
	C376.057007,150.412323 378.849518,149.736328 381.564972,148.829666
	C389.060669,146.326904 396.524200,143.727707 404.000427,141.576630
	C403.988312,144.355042 403.794373,147.036545 407.227966,146.899475
	C409.037994,146.827209 412.349060,145.954910 412.349030,145.444016
	C412.348877,142.947723 411.461639,140.451492 411.036743,137.624786
	C418.776855,132.490509 426.368378,127.686691 434.015625,123.274124
	C436.122620,127.457558 439.877228,126.866341 441.869446,124.950211
	C443.978760,122.921448 444.210938,119.268318 441.023438,116.637764
	C441.870361,115.948486 442.774261,115.748764 443.255859,115.187004
	C450.563904,106.662445 457.978546,98.220566 465.009033,89.470680
	C468.184326,85.518776 470.569061,80.931694 473.312469,76.632782
	C472.992340,76.386292 472.672211,76.139809 472.352112,75.893326
	C467.581451,77.967911 462.810791,80.042496 458.027649,81.700905
	C457.021118,79.867645 456.204590,77.486839 454.990753,77.263283
	C453.245697,76.941887 449.810699,77.874702 449.593658,78.835892
	C449.149139,80.804802 450.365295,83.148682 450.630371,85.642685
	C440.661896,89.623375 431.037262,93.519974 421.241241,96.923050
	C407.210876,101.797050 393.125549,106.539062 378.930054,110.902718
	C368.378204,114.146324 357.639709,116.799751 346.936340,119.527771
	C339.010925,121.547775 331.008362,123.264992 323.028381,124.689499
	C323.399628,120.592140 322.134247,118.781342 318.059265,118.920029
	C314.200012,119.051376 313.850891,121.241837 313.992096,124.160736
	C314.055725,125.476471 314.028320,126.796616 313.869202,128.462234
	C309.477478,129.912186 305.258820,131.014648 301.028351,131.689545
	C300.040955,129.520706 299.436340,126.899094 297.984680,126.287300
	C296.550018,125.682663 292.650757,127.046196 292.627075,127.654854
	C292.532349,130.095276 293.522736,132.577805 293.947205,135.389526
	C291.688324,136.489502 289.535583,137.113922 287.509644,138.021530
	C275.622681,143.346924 263.996887,149.332581 257.491119,161.264450
	C254.357773,167.011200 252.996857,173.724365 250.420868,179.999969
	C246.105408,179.244202 243.811234,180.901398 243.310883,184.903870
	C241.340637,184.557526 239.753647,184.278549 238.166656,183.999573
	C238.952026,165.235519 245.690338,149.458221 261.347839,138.263916
	C271.436920,131.050705 282.158569,125.177750 294.266968,121.833214
	C304.726318,118.944168 314.937836,115.169601 325.323181,111.996864
	C333.236206,109.579407 341.249908,107.491478 349.609436,105.638885
	C350.486053,108.502228 348.488953,112.229660 352.774597,112.820801
	C354.622192,113.075638 358.305481,112.003380 358.328613,111.421646
	C358.426636,108.955826 357.463531,106.447807 356.888153,103.955200
z"/>
<path fill="#FFFFFF" opacity="1.000000" stroke="none"
	d="
M388.886414,187.956772
	C390.874847,188.999985 393.704620,189.599930 394.566895,191.236526
	C395.179779,192.399658 393.153900,194.966507 392.278259,196.894394
	C391.897614,197.732437 391.448090,198.539200 391.034882,199.738754
	C389.018219,200.987396 386.996552,201.857452 384.974884,202.727524
	C385.101685,203.073837 385.228485,203.420166 385.355286,203.766495
	C391.208435,204.824203 397.061584,205.881912 403.877411,207.113602
	C396.887939,216.594055 389.458893,224.233139 380.285797,230.446426
	C371.291534,236.538528 361.379456,240.146332 349.843506,243.241455
	C355.650696,246.215027 360.307617,248.599594 366.185272,251.609253
	C326.105682,281.578857 282.679749,295.443970 233.436798,289.193573
	C233.127151,289.609039 232.817490,290.024475 232.507843,290.439941
	C243.205841,299.281006 253.395065,308.844513 264.708435,316.811768
	C287.803772,333.076263 311.750031,348.250671 330.317169,369.972504
	C338.661926,379.735138 346.290527,390.140076 353.820953,400.559387
	C360.133636,409.293732 366.622650,418.059235 371.587433,427.566162
	C376.946991,437.828949 369.828979,452.050659 357.591064,455.147308
	C348.268036,457.506378 341.304871,453.617950 334.317749,448.737396
	C324.920807,442.173615 315.503937,435.637543 306.158020,429.001709
	C290.841400,418.126617 277.051178,405.468781 265.480133,390.749847
	C253.139450,375.051910 241.862518,358.520142 230.018143,342.428192
	C226.457825,337.591095 222.890381,332.682678 218.739456,328.371948
	C208.404007,317.638641 198.094162,306.831177 187.082413,296.813690
	C177.715179,288.292267 167.436737,280.762482 157.419922,272.976044
	C155.916519,271.807373 153.653961,271.148071 151.717728,271.090576
	C145.777100,270.914154 141.058945,268.911743 137.930313,263.629486
	C136.799591,261.720398 135.481995,261.050934 132.786484,261.786011
	C129.554535,262.667358 125.891068,261.829315 122.448769,262.129364
	C120.493820,262.299805 118.344788,262.871307 116.754318,263.954193
	C114.590736,265.427307 112.877464,267.561829 110.632530,269.741455
	C117.031776,277.171509 117.468483,285.059448 112.323341,293.230652
	C111.812523,294.041870 111.488541,295.233643 110.754524,295.598785
	C106.018326,297.954559 105.954239,300.612610 110.516281,303.906708
	C107.959862,306.836456 105.873360,310.036682 102.984932,312.130798
	C101.864571,312.943085 98.931190,311.254608 96.089577,310.513977
	C95.978767,310.618408 95.144409,311.384613 94.332047,312.173492
	C85.654388,320.600281 73.792229,320.322662 65.341240,311.848450
	C49.340939,295.804169 33.118973,279.975891 17.348316,263.709625
	C8.651237,254.739258 5.527791,244.585785 18.952333,231.257126
	C15.357024,226.821335 15.357024,226.821335 24.588463,218.054565
	C27.181604,221.973007 29.297220,221.092346 32.661736,218.227097
	C35.759315,215.589142 40.329849,214.687347 44.239456,212.992905
	C45.660568,212.376999 47.316849,211.971893 48.399750,210.967911
	C52.058659,207.575684 55.549549,203.997391 59.009041,200.398300
	C59.858673,199.514404 60.815113,198.325500 60.920807,197.201431
	C61.530964,190.712067 64.750801,185.698029 69.232819,181.247360
	C78.809074,171.738083 88.362907,162.205582 97.852921,152.610397
	C101.798187,148.621414 105.939461,145.167374 111.842262,144.607986
	C117.157425,144.104309 119.641739,139.644821 122.930931,136.355103
	C123.713272,135.572632 124.070435,134.323990 124.911331,133.648483
	C128.000336,131.167068 129.619614,128.279953 130.668625,124.207710
	C131.856552,119.596237 135.347198,115.577934 138.008728,111.006012
	C137.660339,109.937744 135.907364,107.184761 136.608398,106.225868
	C138.803177,103.223785 141.923599,100.898415 144.685364,98.310844
	C145.125397,98.960190 145.565430,99.609535 145.764008,100.838257
	C144.470718,103.947136 145.180191,106.005600 147.968414,105.773186
	C149.395599,105.654228 150.895203,103.704849 151.895859,102.259880
	C152.428955,101.490082 151.969116,100.032677 151.957443,98.885628
	C160.715881,89.275734 173.208801,92.292931 179.827393,99.229820
	C187.983246,107.777908 196.502548,115.979233 204.628174,124.688683
	C203.335129,126.448158 202.000290,127.744949 201.409286,129.320724
	C201.252884,129.737717 203.996109,131.963516 204.362946,131.728394
	C205.814133,130.798279 206.850433,129.220810 208.040558,127.883377
	C215.612930,135.339066 223.734482,142.326019 230.607407,150.378693
	C237.876495,158.895523 237.926712,166.608490 228.637115,177.851212
	C228.115753,178.482178 227.513077,179.045959 226.728638,179.872360
	C227.832809,181.156097 228.881195,182.374985 230.253510,183.970474
	C227.047852,186.659988 223.789291,189.393890 220.340790,192.287140
	C217.914871,189.253860 215.609299,190.016251 212.321396,193.857895
	C207.980286,198.930099 197.134399,199.464584 191.078796,196.028152
	C189.826553,195.317535 188.512543,194.715759 186.085388,192.875626
	C184.140472,195.315186 182.033844,197.647919 180.320847,200.240707
	C179.500198,201.482864 179.144577,203.203430 179.068115,204.731827
	C178.886856,208.354660 179.587418,212.125595 178.804794,215.581497
	C178.178772,218.345840 178.610535,219.642426 180.858810,221.022385
	C185.635590,223.954346 188.397278,228.141266 187.991287,233.968201
	C187.587326,239.766083 191.976166,242.937851 195.004028,246.825592
	C200.099579,253.368271 205.307526,259.823395 210.671661,266.571289
	C217.878677,260.537659 221.718002,252.924988 224.952057,245.067337
	C229.873230,233.110550 232.715164,220.613480 234.097763,207.717972
	C234.921005,200.039673 236.675842,192.461243 238.089264,184.418747
	C239.753647,184.278549 241.340637,184.557526 243.310883,184.903870
	C243.811234,180.901398 246.105408,179.244202 250.498154,180.385010
	C248.962967,184.109940 250.541840,187.824921 249.926743,191.256882
	C247.081757,207.130890 244.528030,223.088470 240.808517,238.764252
	C237.942596,250.842636 232.323822,261.944550 224.044998,271.868713
	C226.003937,272.904755 227.855331,274.341492 229.943817,274.915253
	C245.067429,279.070129 260.610199,279.250732 275.787170,276.692108
	C289.472290,274.385010 302.933777,270.198822 316.135223,265.771820
	C324.801239,262.865723 332.829773,258.058655 342.278778,253.562897
	C323.993805,243.984894 306.947388,235.055695 289.900970,226.126495
	C290.093628,225.720032 290.286255,225.313583 290.478882,224.907135
	C299.755249,226.304520 309.127563,227.249908 318.287598,229.195084
	C336.332611,233.027054 353.501648,231.842377 369.536011,222.026016
	C372.534180,220.190506 375.396393,218.132874 379.169830,215.610580
	C356.881531,211.521683 336.170074,207.722046 315.458588,203.922424
	C315.510559,203.275009 315.562500,202.627594 315.614471,201.980179
	C327.191040,200.653458 338.745697,199.069977 350.351013,198.080658
	C359.758942,197.278625 368.898010,195.740952 377.644501,192.067322
	C381.319061,190.523941 385.134857,189.316788 388.886414,187.956772
M136.094604,142.140991
	C136.407318,141.577011 137.011063,140.994980 136.977417,140.452469
	C136.881958,138.912582 136.868042,137.175446 136.109756,135.960526
	C135.792450,135.452148 132.822372,135.670715 132.555008,136.249771
	C131.965179,137.527283 132.121353,139.278595 132.377106,140.767181
	C132.523499,141.619263 133.462250,142.335220 133.806702,143.736877
	C131.519272,145.582458 129.231827,147.428024 126.803535,149.387238
	C140.040634,162.593170 152.183578,174.702499 164.320374,186.818008
	C169.641006,192.129318 169.398712,191.871506 175.187576,186.675400
	C177.590973,184.518112 177.155838,183.607483 175.357498,181.830917
	C162.218887,168.851532 149.115128,155.836868 136.094604,142.140991
M169.174423,107.000381
	C163.420670,103.672653 161.245636,108.585205 158.609268,110.999489
	C178.308929,130.703995 197.801315,150.201157 217.319946,169.724594
	C223.410965,164.786575 224.144012,162.120560 219.970657,157.969055
	C207.382431,145.446609 194.654877,133.063934 182.101151,120.507271
	C178.488235,116.893501 175.279724,112.875397 172.648682,109.010414
	C174.062088,107.851440 175.631393,106.817635 176.751297,105.422981
	C176.963486,105.158760 175.566895,102.793961 174.613403,102.545204
	C170.878220,101.570694 170.139435,104.171745 169.174423,107.000381
M179.331253,151.865494
	C169.731674,142.213531 159.909500,132.767471 150.671417,122.781105
	C147.984497,119.876556 146.931335,121.306656 145.497696,123.062714
	C141.616104,127.817207 142.059250,130.558990 147.444199,135.953278
	C162.379379,150.914368 177.307541,165.882812 192.308975,180.777344
	C200.126038,188.538651 200.814117,186.726059 206.696426,180.730469
	C206.891708,180.531418 206.889450,180.138565 207.004807,179.750015
	C205.980835,178.533142 204.932114,177.286850 204.608353,175.953094
	C205.664734,174.551788 206.999374,173.254837 207.590439,171.679001
	C207.746765,171.262222 205.002106,169.036713 204.636307,169.271637
	C203.185944,170.203110 202.150482,171.780624 200.332108,172.866165
	C193.849258,166.257690 187.366409,159.649216 181.682678,153.016571
	C183.389114,152.025177 186.552841,150.993622 186.526810,150.049988
	C186.450928,147.297302 185.229416,144.525726 184.127197,141.900009
	C183.936920,141.446777 181.695908,141.198700 181.169968,141.685471
	C180.222702,142.562164 179.409119,144.044159 179.345642,145.313614
	C179.233002,147.565842 179.722824,149.848206 179.331253,151.865494
M100.005630,168.741699
	C98.995773,170.001770 98.087776,171.362411 96.959305,172.505356
	C90.291748,179.258469 83.594238,185.982391 76.860878,192.669907
	C74.188080,195.324509 73.932442,198.230392 76.414597,200.878220
	C83.102501,208.012482 89.948822,215.000381 96.814934,221.964874
	C104.842049,230.107040 113.044487,238.077866 120.997108,246.291275
	C125.135773,250.565643 127.558281,251.504044 131.618088,247.641617
	C142.830887,236.973923 153.825790,226.057053 164.485168,214.838058
	C168.570053,210.538742 167.889664,209.089035 163.127426,204.586670
	C161.040115,202.613235 159.035675,200.550415 157.029800,198.492874
	C144.648026,185.792267 132.290833,173.067657 119.877419,160.398071
	C118.763092,159.260742 117.428162,158.051483 115.974594,157.619431
	C114.646225,157.224579 112.620720,157.320663 111.596405,158.105774
	C108.547569,160.442627 105.840240,163.225037 102.987244,165.105209
	C101.783005,163.776901 100.716827,162.238144 99.265747,161.286072
	C98.950539,161.079254 97.255417,162.975571 96.195854,163.903214
	C97.501953,165.283051 98.808052,166.662903 100.005630,168.741699
M332.514954,393.008942
	C328.385345,388.149994 324.597931,382.940582 320.054718,378.505341
	C310.698730,369.371643 301.391144,360.089111 291.222534,351.914032
	C280.295685,343.129425 268.176422,335.844208 257.001740,327.346741
	C246.949738,319.703064 237.250748,311.552795 227.814270,303.155975
	C220.706589,296.831421 213.891479,290.088318 207.606827,282.949890
	C198.415756,272.510193 189.816315,261.549683 181.150391,251.036377
	C176.744141,255.469711 172.575684,259.663788 168.244797,264.021301
	C170.483627,265.854095 172.947342,267.750580 175.277313,269.799164
	C185.565125,278.844574 196.142242,287.594238 205.987961,297.100006
	C216.387589,307.140594 226.872665,317.279785 235.880020,328.529205
	C247.808975,343.427490 257.735474,359.929047 269.662842,374.828766
	C279.178833,386.716217 289.467041,398.355133 301.103149,408.081879
	C315.541199,420.150757 331.692139,430.177521 347.168640,440.992767
	C351.657104,444.129425 354.825134,443.930878 358.192688,439.879974
	C360.944092,436.570312 360.036926,432.647034 357.791565,429.352173
	C349.618774,417.359375 341.293640,405.470398 332.514954,393.008942
M56.998413,234.497818
	C55.584869,233.084076 54.172150,231.669525 52.757641,230.256760
	C46.683090,224.189758 45.046295,224.322235 38.851028,230.686722
	C58.477467,250.316116 78.093391,269.934998 97.726967,289.571533
	C104.593773,283.349762 104.632751,282.133667 97.792442,275.294342
	C84.360031,261.863831 70.929893,248.431030 56.998413,234.497818
M39.999996,267.500000
	C51.527534,279.016479 63.053078,290.534943 74.583656,302.048401
	C78.949982,306.408264 81.100700,306.352417 85.617706,301.908600
	C86.407440,301.131653 87.432022,300.593475 88.348137,299.945007
	C87.758278,300.161438 87.168419,300.377869 86.578568,300.594330
	C67.458351,280.539581 48.338146,260.484833 29.240549,240.453812
	C20.981682,248.199966 20.976168,248.477753 28.213495,255.711594
	C31.976889,259.473175 35.737911,263.237122 39.999996,267.500000
M71.991150,215.486938
	C70.657127,213.606079 69.323097,211.725235 67.685493,209.416367
	C64.172134,213.424194 61.848618,216.074722 59.336033,218.940933
	C71.012054,230.578186 82.220619,241.747345 93.426575,252.919113
	C101.104919,260.574036 101.104080,260.576477 108.900635,253.330063
	C108.990448,253.246597 108.936630,253.008621 108.980286,252.461441
	C96.935028,240.423492 84.713249,228.209137 71.991150,215.486938
M164.610962,232.925491
	C159.790375,237.736420 155.017960,242.596954 150.131058,247.339554
	C147.226044,250.158813 145.578247,253.074936 149.012405,256.481232
	C152.294662,259.736877 155.384171,257.946472 157.990799,255.464005
	C162.919769,250.769791 167.657700,245.874619 172.462433,241.050430
	C174.987991,238.514618 176.424866,235.015869 174.356628,232.269867
	C171.919052,229.033447 168.168427,229.157288 164.610962,232.925491
M231.450409,170.887451
	C230.685486,169.326782 230.037781,167.679230 229.019836,166.306091
	C228.879196,166.116364 226.329376,167.021927 225.931824,167.893448
	C225.466553,168.913467 225.812790,171.381790 226.379913,171.579651
	C227.736877,172.053055 229.429794,171.563538 231.450409,170.887451
M171.502167,220.893127
	C172.509293,219.347870 173.642990,217.857529 174.366898,216.189362
	C174.459702,215.975510 172.395889,214.247238 171.376938,214.290863
	C170.341064,214.335220 168.436859,215.861496 168.539185,216.461441
	C168.799026,217.984848 169.968796,219.353073 171.502167,220.893127
z"/>
<path fill="#FFFFFF" opacity="1.000000" stroke="none"
	d="
M398.617615,91.091789
	C399.327789,92.441460 399.895264,93.709213 399.932922,94.992508
	C400.012573,97.707466 400.761108,100.786926 396.260742,101.061592
	C391.976562,101.323067 390.514771,99.490891 390.992035,95.510429
	C391.050781,95.020615 391.000031,94.517670 390.999817,93.593735
	C393.411407,92.450073 395.823120,91.733498 398.617615,91.091789
z"/>
<path fill="#FFFFFF" opacity="1.000000" stroke="none"
	d="
M356.486053,103.975975
	C357.463531,106.447807 358.426636,108.955826 358.328613,111.421646
	C358.305481,112.003380 354.622192,113.075638 352.774597,112.820801
	C348.488953,112.229660 350.486053,108.502228 349.999847,105.593735
	C352.027771,104.776688 354.055878,104.386719 356.486053,103.975975
z"/>
<path fill="#FFFFFF" opacity="1.000000" stroke="none"
	d="
M207.942719,127.594566
	C206.850433,129.220810 205.814133,130.798279 204.362946,131.728394
	C203.996109,131.963516 201.252884,129.737717 201.409286,129.320724
	C202.000290,127.744949 203.335129,126.448158 204.754150,125.003235
	C206.026077,125.741592 206.935471,126.523674 207.942719,127.594566
z"/>
<path fill="#FFFFFF" opacity="1.000000" stroke="none"
	d="
M151.645355,99.009361
	C151.969116,100.032677 152.428955,101.490082 151.895859,102.259880
	C150.895203,103.704849 149.395599,105.654228 147.968414,105.773186
	C145.180191,106.005600 144.470718,103.947136 145.815887,101.185249
	C148.920074,103.416626 149.764664,100.235626 151.645355,99.009361
z"/>
<path fill="#000000" opacity="1.000000" stroke="none"
	d="
M389.029694,187.621399
	C385.134857,189.316788 381.319061,190.523941 377.644501,192.067322
	C368.898010,195.740952 359.758942,197.278625 350.351013,198.080658
	C338.745697,199.069977 327.191040,200.653458 315.614471,201.980179
	C315.562500,202.627594 315.510559,203.275009 315.458588,203.922424
	C336.170074,207.722046 356.881531,211.521683 379.169830,215.610580
	C375.396393,218.132874 372.534180,220.190506 369.536011,222.026016
	C353.501648,231.842377 336.332611,233.027054 318.287598,229.195084
	C309.127563,227.249908 299.755249,226.304520 290.478882,224.907135
	C290.286255,225.313583 290.093628,225.720032 289.900970,226.126495
	C306.947388,235.055695 323.993805,243.984894 342.278778,253.562897
	C332.829773,258.058655 324.801239,262.865723 316.135223,265.771820
	C302.933777,270.198822 289.472290,274.385010 275.787170,276.692108
	C260.610199,279.250732 245.067429,279.070129 229.943817,274.915253
	C227.855331,274.341492 226.003937,272.904755 224.044998,271.868713
	C232.323822,261.944550 237.942596,250.842636 240.808517,238.764252
	C244.528030,223.088470 247.081757,207.130890 249.926743,191.256882
	C250.541840,187.824921 248.962967,184.109940 250.910645,180.384949
	C252.996857,173.724365 254.357773,167.011200 257.491119,161.264450
	C263.996887,149.332581 275.622681,143.346924 287.509644,138.021530
	C289.535583,137.113922 291.688324,136.489502 294.314880,135.365570
	C296.911560,134.036972 298.975861,133.077057 301.040131,132.117126
	C305.258820,131.014648 309.477478,129.912186 314.262878,128.408966
	C317.566437,127.044518 320.303314,126.080803 323.040161,125.117096
	C331.008362,123.264992 339.010925,121.547775 346.936340,119.527771
	C357.639709,116.799751 368.378204,114.146324 378.930054,110.902718
	C393.125549,106.539062 407.210876,101.797050 421.241241,96.923050
	C431.037262,93.519974 440.661896,89.623375 450.929382,85.486603
	C453.677216,84.056358 455.858673,83.086723 458.040161,82.117081
	C462.810791,80.042496 467.581451,77.967911 472.352112,75.893326
	C472.672211,76.139809 472.992340,76.386292 473.312469,76.632782
	C470.569061,80.931694 468.184326,85.518776 465.009033,89.470680
	C457.978546,98.220566 450.563904,106.662445 443.255859,115.187004
	C442.774261,115.748764 441.870361,115.948486 440.702393,116.764763
	C438.147858,119.102898 436.053864,120.992882 433.959869,122.882874
	C426.368378,127.686691 418.776855,132.490509 410.676239,137.648071
	C408.111542,139.056778 406.056000,140.111710 404.000458,141.166656
	C396.524200,143.727707 389.060669,146.326904 381.564972,148.829666
	C378.849518,149.736328 376.057007,150.412323 372.760193,151.592651
	C370.800262,152.622223 369.379761,153.252701 367.664734,153.937790
	C367.017365,154.127777 366.664520,154.263168 365.925537,154.270447
	C364.627808,154.809631 363.716217,155.476944 362.566498,156.318558
	C366.773987,156.612686 370.365936,156.863785 373.957886,157.114868
	C377.208588,157.743164 380.435699,158.712311 383.714172,158.939026
	C396.002899,159.788864 408.308380,160.396118 421.652496,161.153610
	C412.374512,172.555786 401.533813,180.834579 389.029694,187.621399
z"/>
<path fill="#FFFFFF" opacity="1.000000" stroke="none"
	d="
M323.028381,124.689499
	C320.303314,126.080803 317.566437,127.044518 314.435913,128.061493
	C314.028320,126.796616 314.055725,125.476471 313.992096,124.160736
	C313.850891,121.241837 314.200012,119.051376 318.059265,118.920029
	C322.134247,118.781342 323.399628,120.592140 323.028381,124.689499
z"/>
<path fill="#FFFFFF" opacity="1.000000" stroke="none"
	d="
M301.028351,131.689545
	C298.975861,133.077057 296.911560,134.036972 294.479584,135.020828
	C293.522736,132.577805 292.532349,130.095276 292.627075,127.654854
	C292.650757,127.046196 296.550018,125.682663 297.984680,126.287300
	C299.436340,126.899094 300.040955,129.520706 301.028351,131.689545
z"/>
<path fill="#FFFFFF" opacity="1.000000" stroke="none"
	d="
M404.000427,141.576614
	C406.056000,140.111710 408.111542,139.056778 410.527618,137.978531
	C411.461639,140.451492 412.348877,142.947723 412.349030,145.444016
	C412.349060,145.954910 409.037994,146.827209 407.227966,146.899475
	C403.794373,147.036545 403.988312,144.355042 404.000427,141.576614
z"/>
<path fill="#FFFFFF" opacity="1.000000" stroke="none"
	d="
M458.027649,81.700912
	C455.858673,83.086723 453.677216,84.056358 451.196716,85.182083
	C450.365295,83.148682 449.149139,80.804802 449.593658,78.835892
	C449.810699,77.874702 453.245697,76.941887 454.990753,77.263283
	C456.204590,77.486839 457.021118,79.867645 458.027649,81.700912
z"/>
<path fill="#FFFFFF" opacity="1.000000" stroke="none"
	d="
M434.015625,123.274117
	C436.053864,120.992882 438.147858,119.102898 440.562927,117.085915
	C444.210938,119.268318 443.978760,122.921448 441.869446,124.950211
	C439.877228,126.866341 436.122620,127.457558 434.015625,123.274117
z"/>
<path fill="#FFFFFF" opacity="1.000000" stroke="none"
	d="
M367.959290,153.883179
	C369.379761,153.252701 370.800262,152.622223 372.588196,151.939667
	C373.297241,153.370422 373.638794,154.853256 373.969116,156.725494
	C370.365936,156.863785 366.773987,156.612686 362.566498,156.318558
	C363.716217,155.476944 364.627808,154.809631 366.239655,154.395355
	C367.279694,154.393311 367.619476,154.138245 367.959290,153.883179
z"/>
<path fill="#000000" opacity="1.000000" stroke="none"
	d="
M332.770447,393.275635
	C341.293640,405.470398 349.618774,417.359375 357.791565,429.352173
	C360.036926,432.647034 360.944092,436.570312 358.192688,439.879974
	C354.825134,443.930878 351.657104,444.129425 347.168640,440.992767
	C331.692139,430.177521 315.541199,420.150757 301.103149,408.081879
	C289.467041,398.355133 279.178833,386.716217 269.662842,374.828766
	C257.735474,359.929047 247.808975,343.427490 235.880020,328.529205
	C226.872665,317.279785 216.387589,307.140594 205.987961,297.100006
	C196.142242,287.594238 185.565125,278.844574 175.277313,269.799164
	C172.947342,267.750580 170.483627,265.854095 168.244797,264.021301
	C172.575684,259.663788 176.744141,255.469711 181.150391,251.036377
	C189.816315,261.549683 198.415756,272.510193 207.606827,282.949890
	C213.891479,290.088318 220.706589,296.831421 227.814270,303.155975
	C237.250748,311.552795 246.949738,319.703064 257.001740,327.346741
	C268.176422,335.844208 280.295685,343.129425 291.222534,351.914032
	C301.391144,360.089111 310.698730,369.371643 320.054718,378.505341
	C324.597931,382.940582 328.385345,388.149994 332.770447,393.275635
z"/>
<path fill="#000000" opacity="1.000000" stroke="none"
	d="
M102.999466,165.833344
	C105.840240,163.225037 108.547569,160.442627 111.596405,158.105774
	C112.620720,157.320663 114.646225,157.224579 115.974594,157.619431
	C117.428162,158.051483 118.763092,159.260742 119.877419,160.398071
	C132.290833,173.067657 144.648026,185.792267 157.029800,198.492874
	C159.035675,200.550415 161.040115,202.613235 163.127426,204.586670
	C167.889664,209.089035 168.570053,210.538742 164.485168,214.838058
	C153.825790,226.057053 142.830887,236.973923 131.618088,247.641617
	C127.558281,251.504044 125.135773,250.565643 120.997108,246.291275
	C113.044487,238.077866 104.842049,230.107040 96.814934,221.964874
	C89.948822,215.000381 83.102501,208.012482 76.414597,200.878220
	C73.932442,198.230392 74.188080,195.324509 76.860878,192.669907
	C83.594238,185.982391 90.291748,179.258469 96.959305,172.505356
	C98.087776,171.362411 98.995773,170.001770 100.407990,168.370667
	C101.540054,167.277527 102.269760,166.555435 102.999466,165.833344
z"/>
<path fill="#000000" opacity="1.000000" stroke="none"
	d="
M203.883377,176.040558
	C204.932114,177.286850 205.980835,178.533142 207.004807,179.750015
	C206.889450,180.138565 206.891708,180.531418 206.696426,180.730469
	C200.814117,186.726059 200.126038,188.538651 192.308975,180.777344
	C177.307541,165.882812 162.379379,150.914368 147.444199,135.953278
	C142.059250,130.558990 141.616104,127.817207 145.497696,123.062714
	C146.931335,121.306656 147.984497,119.876556 150.671417,122.781105
	C159.909500,132.767471 169.731674,142.213531 179.701691,152.226624
	C180.257263,152.891632 180.527725,153.042633 180.883560,153.040741
	C187.366409,159.649216 193.849258,166.257690 200.744354,173.281067
	C202.065536,174.477493 202.974457,175.259018 203.883377,176.040558
z"/>
<path fill="#000000" opacity="1.000000" stroke="none"
	d="
M57.248611,234.748505
	C70.929893,248.431030 84.360031,261.863831 97.792442,275.294342
	C104.632751,282.133667 104.593773,283.349762 97.726967,289.571533
	C78.093391,269.934998 58.477467,250.316116 38.851028,230.686722
	C45.046295,224.322235 46.683090,224.189758 52.757641,230.256760
	C54.172150,231.669525 55.584869,233.084076 57.248611,234.748505
z"/>
<path fill="#000000" opacity="1.000000" stroke="none"
	d="
M39.750000,267.250000
	C35.737911,263.237122 31.976889,259.473175 28.213495,255.711594
	C20.976168,248.477753 20.981682,248.199966 29.240549,240.453812
	C48.338146,260.484833 67.458351,280.539581 86.578568,300.594330
	C87.168419,300.377869 87.758278,300.161438 88.348137,299.945007
	C87.432022,300.593475 86.407440,301.131653 85.617706,301.908600
	C81.100700,306.352417 78.949982,306.408264 74.583656,302.048401
	C63.053078,290.534943 51.527534,279.016479 39.750000,267.250000
z"/>
<path fill="#000000" opacity="1.000000" stroke="none"
	d="
M171.885788,109.042679
	C175.279724,112.875397 178.488235,116.893501 182.101151,120.507271
	C194.654877,133.063934 207.382431,145.446609 219.970657,157.969055
	C224.144012,162.120560 223.410965,164.786575 217.319946,169.724594
	C197.801315,150.201157 178.308929,130.703995 158.609268,110.999489
	C161.245636,108.585205 163.420670,103.672653 169.587128,107.397934
	C170.628494,108.211212 171.257141,108.626945 171.885788,109.042679
z"/>
<path fill="#000000" opacity="1.000000" stroke="none"
	d="
M136.000366,142.833344
	C149.115128,155.836868 162.218887,168.851532 175.357498,181.830917
	C177.155838,183.607483 177.590973,184.518112 175.187576,186.675400
	C169.398712,191.871506 169.641006,192.129318 164.320374,186.818008
	C152.183578,174.702499 140.040634,162.593170 126.803535,149.387238
	C129.231827,147.428024 131.519272,145.582458 134.251801,143.372055
	C135.131393,142.949265 135.565872,142.891296 136.000366,142.833344
z"/>
<path fill="#000000" opacity="1.000000" stroke="none"
	d="
M72.241302,215.740845
	C84.713249,228.209137 96.935028,240.423492 108.980286,252.461441
	C108.936630,253.008621 108.990448,253.246597 108.900635,253.330063
	C101.104080,260.576477 101.104919,260.574036 93.426575,252.919113
	C82.220619,241.747345 71.012054,230.578186 59.336033,218.940933
	C61.848618,216.074722 64.172134,213.424194 67.685493,209.416367
	C69.323097,211.725235 70.657127,213.606079 72.241302,215.740845
z"/>
<path fill="#000000" opacity="1.000000" stroke="none"
	d="
M164.853546,232.642685
	C168.168427,229.157288 171.919052,229.033447 174.356628,232.269867
	C176.424866,235.015869 174.987991,238.514618 172.462433,241.050430
	C167.657700,245.874619 162.919769,250.769791 157.990799,255.464005
	C155.384171,257.946472 152.294662,259.736877 149.012405,256.481232
	C145.578247,253.074936 147.226044,250.158813 150.131058,247.339554
	C155.017960,242.596954 159.790375,237.736420 164.853546,232.642685
z"/>
<path fill="#FFFFFF" opacity="1.000000" stroke="none"
	d="
M181.283112,153.028656
	C180.527725,153.042633 180.257263,152.891632 180.016357,152.352844
	C179.722824,149.848206 179.233002,147.565842 179.345642,145.313614
	C179.409119,144.044159 180.222702,142.562164 181.169968,141.685471
	C181.695908,141.198700 183.936920,141.446777 184.127197,141.900009
	C185.229416,144.525726 186.450928,147.297302 186.526810,150.049988
	C186.552841,150.993622 183.389114,152.025177 181.283112,153.028656
z"/>
<path fill="#FFFFFF" opacity="1.000000" stroke="none"
	d="
M172.267242,109.026550
	C171.257141,108.626945 170.628494,108.211212 169.978577,107.454849
	C170.139435,104.171745 170.878220,101.570694 174.613403,102.545204
	C175.566895,102.793961 176.963486,105.158760 176.751297,105.422981
	C175.631393,106.817635 174.062088,107.851440 172.267242,109.026550
z"/>
<path fill="#FFFFFF" opacity="1.000000" stroke="none"
	d="
M136.047485,142.487167
	C135.565872,142.891296 135.131393,142.949265 134.370575,143.059845
	C133.462250,142.335220 132.523499,141.619263 132.377106,140.767181
	C132.121353,139.278595 131.965179,137.527283 132.555008,136.249771
	C132.822372,135.670715 135.792450,135.452148 136.109756,135.960526
	C136.868042,137.175446 136.881958,138.912582 136.977417,140.452469
	C137.011063,140.994980 136.407318,141.577011 136.047485,142.487167
z"/>
<path fill="#FFFFFF" opacity="1.000000" stroke="none"
	d="
M102.993355,165.469269
	C102.269760,166.555435 101.540054,167.277527 100.462250,168.021179
	C98.808052,166.662903 97.501953,165.283051 96.195862,163.903214
	C97.255417,162.975571 98.950539,161.079254 99.265747,161.286072
	C100.716827,162.238144 101.783005,163.776901 102.993355,165.469269
z"/>
<path fill="#FFFFFF" opacity="1.000000" stroke="none"
	d="
M231.218750,171.175095
	C229.429794,171.563538 227.736877,172.053055 226.379913,171.579651
	C225.812790,171.381790 225.466553,168.913467 225.931824,167.893448
	C226.329376,167.021927 228.879196,166.116364 229.019836,166.306091
	C230.037781,167.679230 230.685486,169.326782 231.218750,171.175095
z"/>
<path fill="#FFFFFF" opacity="1.000000" stroke="none"
	d="
M204.245865,175.996826
	C202.974457,175.259018 202.065536,174.477493 201.058929,173.407333
	C202.150482,171.780624 203.185944,170.203110 204.636307,169.271637
	C205.002106,169.036713 207.746765,171.262222 207.590439,171.679001
	C206.999374,173.254837 205.664734,174.551788 204.245865,175.996826
z"/>
<path fill="#FFFFFF" opacity="1.000000" stroke="none"
	d="
M171.138214,220.838272
	C169.968796,219.353073 168.799026,217.984848 168.539185,216.461441
	C168.436859,215.861496 170.341064,214.335220 171.376938,214.290863
	C172.395889,214.247238 174.459702,215.975510 174.366898,216.189362
	C173.642990,217.857529 172.509293,219.347870 171.138214,220.838272
z"/>
<path fill="#FFFFFF" opacity="1.000000" stroke="none"
	d="
M367.664734,153.937775
	C367.619476,154.138245 367.279694,154.393311 366.625793,154.523468
	C366.664520,154.263168 367.017365,154.127777 367.664734,153.937775
z"/>
</svg>
