<?xml version="1.0" encoding="UTF-8"?>
<svg version="1.1" xmlns="http://www.w3.org/2000/svg" width="500" height="500">
<path d="M0 0 C-0.53977664 5.19118523 -1.7828168 9.54297475 -3.9375 14.3125 C-4.23672363 14.98821045 -4.53594727 15.6639209 -4.84423828 16.36010742 C-8.4309315 24.25497584 -12.73270649 31.76541117 -17.07958984 39.26098633 C-18.14284747 41.15472437 -18.14284747 41.15472437 -19 44 C-19.66 44 -20.32 44 -21 44 C-21.0825 44.70125 -21.165 45.4025 -21.25 46.125 C-22.18009005 49.6903452 -23.76686369 52.09015572 -26 55 C-26.66 55 -27.32 55 -28 55 C-28 55.99 -28 56.98 -28 58 C-28.66 58 -29.32 58 -30 58 C-30.33 59.32 -30.66 60.64 -31 62 C-31.66 62 -32.32 62 -33 62 C-33.20625 62.721875 -33.4125 63.44375 -33.625 64.1875 C-35.09934525 67.20320619 -36.80344832 68.71328174 -39.42578125 70.7578125 C-43.06909041 73.63268176 -46.06271694 77.05829915 -49 80.625 C-51.39978039 83.47512478 -53.70033002 85.21639461 -57 87 C-57.45761719 87.46148437 -57.91523438 87.92296875 -58.38671875 88.3984375 C-64.30725161 94.27596407 -72.59229665 98.29614833 -80 102 C-77.47980028 102.33885038 -74.95901484 102.67120335 -72.4375 103 C-71.73302734 103.09539062 -71.02855469 103.19078125 -70.30273438 103.2890625 C-66.80999501 103.73973855 -63.63895709 103.98843506 -60.09765625 103.875 C-59.07542969 103.91625 -58.05320312 103.9575 -57 104 C-56.34 104.99 -55.68 105.98 -55 107 C-55.78345715 108.17219543 -56.57702836 109.33763668 -57.375 110.5 C-58.03628906 111.47453125 -58.03628906 111.47453125 -58.7109375 112.46875 C-59.13632812 112.9740625 -59.56171875 113.479375 -60 114 C-60.66 114 -61.32 114 -62 114 C-62.12375 114.598125 -62.2475 115.19625 -62.375 115.8125 C-63 118 -63 118 -65 121 C-65.66 121 -66.32 121 -67 121 C-67.061875 121.556875 -67.12375 122.11375 -67.1875 122.6875 C-68.3476371 125.98942866 -70.45559795 127.62907991 -73 130 C-73.886875 130.928125 -74.77375 131.85625 -75.6875 132.8125 C-78 135 -78 135 -80 135 C-80 135.66 -80 136.32 -80 137 C-81.8125 139.125 -81.8125 139.125 -84 141 C-84.99 141 -85.98 141 -87 141 C-87 141.66 -87 142.32 -87 143 C-88.32 143.33 -89.64 143.66 -91 144 C-91 144.66 -91 145.32 -91 146 C-98.12261455 150.93486558 -106.05381251 154.60566401 -114 158 C-112.85660156 158.19335938 -111.71320313 158.38671875 -110.53515625 158.5859375 C-109.04418963 158.84849766 -107.55330851 159.11154361 -106.0625 159.375 C-105.30775391 159.50132812 -104.55300781 159.62765625 -103.77539062 159.7578125 C-101.83716865 160.10547563 -99.91620795 160.54643504 -98 161 C-97.67 161.66 -97.34 162.32 -97 163 C-98.2739589 165.03833424 -99.61061923 167.03852126 -101 169 C-101.66 169 -102.32 169 -103 169 C-103 169.66 -103 170.32 -103 171 C-103.66 171 -104.32 171 -105 171 C-105.268125 171.639375 -105.53625 172.27875 -105.8125 172.9375 C-107 175 -107 175 -110 176 C-110 176.66 -110 177.32 -110 178 C-110.66 178 -111.32 178 -112 178 C-112 178.66 -112 179.32 -112 180 C-113.95371106 181.80342559 -115.88424483 183.40220979 -118 185 C-118.64195312 185.48984375 -119.28390625 185.9796875 -119.9453125 186.484375 C-128.66351125 192.72544717 -138.88580082 195.74288501 -149 199 C-144.71 200.98 -140.42 202.96 -136 205 C-137.58768455 211.35073819 -142.77672837 213.42618257 -148 217 C-148.84304688 217.64195312 -149.68609375 218.28390625 -150.5546875 218.9453125 C-169.05290636 232.50335421 -194.59062559 240.05155713 -217 244 C-218.09441406 244.20496094 -219.18882812 244.40992188 -220.31640625 244.62109375 C-235.59159027 247.09584423 -251.66293103 246.84981443 -267 245 C-260.87680892 251.43483753 -260.87680892 251.43483753 -253.9375 256.9375 C-252.968125 257.618125 -251.99875 258.29875 -251 259 C-251 259.66 -251 260.32 -251 261 C-250.44570312 261.25652344 -249.89140625 261.51304687 -249.3203125 261.77734375 C-246.66692407 263.17550971 -244.31438073 264.81852482 -241.875 266.5625 C-238.54908252 268.96731666 -238.54908252 268.96731666 -235 271 C-235 271.66 -235 272.32 -235 273 C-234.27425781 273.26167969 -233.54851562 273.52335937 -232.80078125 273.79296875 C-229.93600054 275.02758136 -227.70444655 276.47866657 -225.1875 278.3125 C-221.35832947 281.06812497 -217.48014123 283.59351506 -213.3984375 285.95703125 C-212.70621094 286.47330078 -212.70621094 286.47330078 -212 287 C-212 287.66 -212 288.32 -212 289 C-211.26265625 289.26425781 -210.5253125 289.52851563 -209.765625 289.80078125 C-207.01004752 290.99564324 -205.07569693 292.30540823 -202.75 294.1875 C-199.59742524 296.71903332 -196.41756696 299.1931374 -193.1875 301.625 C-189.94395371 304.13394522 -187.44140352 306.67969121 -185 310 C-184.34 310.33 -183.68 310.66 -183 311 C-183 311.66 -183 312.32 -183 313 C-182.01 313.33 -181.02 313.66 -180 314 C-180 314.66 -180 315.32 -180 316 C-179.34 316 -178.68 316 -178 316 C-178 316.66 -178 317.32 -178 318 C-177.34 318 -176.68 318 -176 318 C-176 318.66 -176 319.32 -176 320 C-175.1646875 320.3403125 -175.1646875 320.3403125 -174.3125 320.6875 C-160.18253457 328.70721011 -150.15263219 349.24166298 -141.25 362.4375 C-140.81961426 363.07002686 -140.38922852 363.70255371 -139.94580078 364.35424805 C-137 368.76441773 -137 368.76441773 -137 371 C-136.34 371 -135.68 371 -135 371 C-129.55846577 376.81086914 -127.34089632 382.57064284 -127.375 390.375 C-127.37677246 391.05240234 -127.37854492 391.72980469 -127.38037109 392.42773438 C-127.55467866 396.69140318 -128.3583827 399.62966068 -131 403 C-131.66 403 -132.32 403 -133 403 C-133.2475 403.598125 -133.495 404.19625 -133.75 404.8125 C-135.8772634 408.53521095 -138.25990236 409.72957971 -142.25 411.1875 C-151.19801861 413.12623737 -156.27841757 411.70707665 -164 407 C-166.0478247 405.57758173 -168.01769014 404.09796302 -169.97265625 402.55078125 C-172.95759118 400.26750733 -176.13217504 398.29532244 -179.3125 396.296875 C-179.869375 395.86890625 -180.42625 395.4409375 -181 395 C-181 394.34 -181 393.68 -181 393 C-181.7425 392.71125 -182.485 392.4225 -183.25 392.125 C-185.56739797 391.17697356 -187.77917115 390.15154089 -190 389 C-190 388.34 -190 387.68 -190 387 C-190.70511719 386.7525 -191.41023438 386.505 -192.13671875 386.25 C-195.36887443 384.83896341 -197.96328902 383.0749274 -200.8125 381 C-201.78832031 380.29875 -202.76414062 379.5975 -203.76953125 378.875 C-204.50558594 378.25625 -205.24164063 377.6375 -206 377 C-206 376.34 -206 375.68 -206 375 C-206.598125 374.71125 -207.19625 374.4225 -207.8125 374.125 C-210 373 -210 373 -213 371 C-213 370.34 -213 369.68 -213 369 C-213.66 369 -214.32 369 -215 369 C-216.41015625 367.56640625 -216.41015625 367.56640625 -218.0625 365.5625 C-222.89562781 359.87171903 -228.2223291 354.70992283 -233.5625 349.5 C-238.61624385 344.31667298 -243.31322207 339.24877615 -247 333 C-247.66 332.34 -248.32 331.68 -249 331 C-249 330.01 -249 329.02 -249 328 C-249.66 328 -250.32 328 -251 328 C-252.2890625 326.3203125 -252.2890625 326.3203125 -253.625 324.125 C-254.07101563 323.40570313 -254.51703125 322.68640625 -254.9765625 321.9453125 C-256 320 -256 320 -256 318 C-256.66 318 -257.32 318 -258 318 C-259.7265625 315.91796875 -259.7265625 315.91796875 -261.625 313.1875 C-262.25664062 312.29417969 -262.88828125 311.40085937 -263.5390625 310.48046875 C-265 308 -265 308 -265 305 C-265.66 305 -266.32 305 -267 305 C-270 300.61538462 -270 300.61538462 -270 298 C-270.66 298 -271.32 298 -272 298 C-275 293.61538462 -275 293.61538462 -275 291 C-275.66 291 -276.32 291 -277 291 C-278.26171875 289.49609375 -278.26171875 289.49609375 -279.6875 287.4375 C-283.72807766 281.88048278 -288.41520568 277.32959304 -293.625 272.875 C-297.49686074 269.53457113 -301.12983476 265.98303399 -304.75 262.375 C-305.30510254 261.82440918 -305.86020508 261.27381836 -306.43212891 260.70654297 C-308.84656411 258.28334658 -311.08706041 255.89040811 -313.21875 253.20703125 C-315.21176917 250.73761057 -317.28406259 249.58429682 -320 248 C-320 247.34 -320 246.68 -320 246 C-320.66 246 -321.32 246 -322 246 C-322 245.34 -322 244.68 -322 244 C-323.32 243.67 -324.64 243.34 -326 243 C-326 242.34 -326 241.68 -326 241 C-327.65 240.34 -329.3 239.68 -331 239 C-331 238.34 -331 237.68 -331 237 C-332.65 236.34 -334.3 235.68 -336 235 C-336 234.34 -336 233.68 -336 233 C-337.32 232.67 -338.64 232.34 -340 232 C-340 231.34 -340 230.68 -340 230 C-340.66 230 -341.32 230 -342 230 C-342 229.34 -342 228.68 -342 228 C-342.95261719 227.89042969 -343.90523437 227.78085937 -344.88671875 227.66796875 C-346.14097656 227.50941406 -347.39523437 227.35085938 -348.6875 227.1875 C-350.54955078 226.96126953 -350.54955078 226.96126953 -352.44921875 226.73046875 C-355.95445535 226.00936947 -358.16255733 225.15385228 -361 223 C-361 222.34 -361 221.68 -361 221 C-361.66 221 -362.32 221 -363 221 C-363 220.34 -363 219.68 -363 219 C-363.66 219 -364.32 219 -365 219 C-365 218.34 -365 217.68 -365 217 C-365.51820313 217.17273438 -366.03640625 217.34546875 -366.5703125 217.5234375 C-369.74637371 218.14639484 -372.64775457 217.82626907 -375.875 217.625 C-380.88473328 217.46664493 -380.88473328 217.46664493 -385.25 219.5546875 C-386.71350004 221.30666591 -387.92322836 222.99002628 -389 225 C-388.61585938 225.61746094 -388.23171875 226.23492187 -387.8359375 226.87109375 C-383.40596057 234.65316552 -383.40596057 234.65316552 -384.5 239.75 C-386.33925272 245.6190761 -389.00586157 250.31721701 -393 255 C-392.01 255.99 -391.02 256.98 -390 258 C-390.66 259.32 -391.32 260.64 -392 262 C-392.66 262 -393.32 262 -394 262 C-394.28875 262.61875 -394.5775 263.2375 -394.875 263.875 C-396 266 -396 266 -398 268 C-400.93453261 267.63318342 -401.86437246 267.13562754 -404 265 C-404.76183594 265.72316406 -404.76183594 265.72316406 -405.5390625 266.4609375 C-410.63599058 271.13789398 -414.29592374 273.50137435 -421.25 274.4375 C-432.28817133 273.14971334 -439.53939138 265.1910509 -446.95703125 257.671875 C-448.07339112 256.55634588 -449.19056913 255.44163497 -450.30851746 254.32769775 C-452.63683852 252.00221892 -454.9562297 249.66829566 -457.26928711 247.32763672 C-460.21708273 244.34574194 -463.18452348 241.38435801 -466.15874195 238.42884445 C-468.4646472 236.1335664 -470.76061693 233.8285502 -473.05371666 231.52048492 C-474.14365121 230.42541137 -475.23635886 229.33308993 -476.33201027 228.24373627 C-490.44161062 214.18487269 -490.44161062 214.18487269 -492 204 C-491.89597853 197.65469046 -490.45232412 194.61394088 -486.27734375 189.859375 C-484.62251012 187.82647988 -484.62251012 187.82647988 -485 184 C-485 180 -485 180 -483.609375 178.04296875 C-482.99578125 177.43066406 -482.3821875 176.81835938 -481.75 176.1875 C-481.14671875 175.56230469 -480.5434375 174.93710938 -479.921875 174.29296875 C-478 173 -478 173 -475.953125 173.30078125 C-475.30859375 173.53152344 -474.6640625 173.76226562 -474 174 C-470.79946086 174.33952099 -470.79946086 174.33952099 -468.5 171.6875 C-465.65224795 169.13951133 -463.14127041 168.3623853 -459.4375 167.5 C-454.39716845 166.31524816 -452.28299284 164.91841081 -449 161 C-448.34 161 -447.68 161 -447 161 C-447 160.34 -447 159.68 -447 159 C-446.34 159 -445.68 159 -445 159 C-444.71125 158.38125 -444.4225 157.7625 -444.125 157.125 C-443 155 -443 155 -441 153 C-440.9175 151.989375 -440.835 150.97875 -440.75 149.9375 C-439.68571922 141.23627133 -431.79918309 134.36999761 -425.86328125 128.53515625 C-425.10202438 127.77577255 -424.34076752 127.01638885 -423.55644226 126.23399353 C-421.96066119 124.64488667 -420.36131064 123.05935683 -418.75854492 121.47729492 C-416.3018137 119.05195022 -413.85612964 116.61588135 -411.41210938 114.17773438 C-409.85479188 112.62957916 -408.29687053 111.08203109 -406.73828125 109.53515625 C-406.00700516 108.80813004 -405.27572906 108.08110382 -404.52229309 107.33204651 C-403.84115952 106.66052048 -403.16002594 105.98899445 -402.45825195 105.29711914 C-401.86123978 104.70693497 -401.2642276 104.11675079 -400.64912415 103.50868225 C-397.9351283 101.02581438 -395.60029047 99.7605231 -392.0625 99 C-388.21795908 98.0916744 -385.22539028 97.22539028 -382.375 94.375 C-381.92125 93.92125 -381.4675 93.4675 -381 93 C-380.34 93 -379.68 93 -379 93 C-378.5978125 92.1028125 -378.5978125 92.1028125 -378.1875 91.1875 C-377.00082594 89.00152146 -375.90400887 87.58667406 -374 86 C-373.34 86 -372.68 86 -372 86 C-372.0825 85.01 -372.165 84.02 -372.25 83 C-372.25 76.30166213 -368.26969043 70.8796462 -364 66 C-365.485 64.02 -365.485 64.02 -367 62 C-363.7 58.7 -360.4 55.4 -357 52 C-354.525 53.485 -354.525 53.485 -352 55 C-351.45730469 54.59007812 -350.91460937 54.18015625 -350.35546875 53.7578125 C-349.28232422 52.94957031 -349.28232422 52.94957031 -348.1875 52.125 C-347.47980469 51.59132812 -346.77210938 51.05765625 -346.04296875 50.5078125 C-340.60771875 46.4963278 -336.65955828 46.09146545 -330 47 C-325.71016532 48.81950574 -322.07877855 51.49882805 -319 55 C-319 55.66 -319 56.32 -319 57 C-318.34 57 -317.68 57 -317 57 C-317 57.66 -317 58.32 -317 59 C-316.34 59 -315.68 59 -315 59 C-313.375 60.375 -313.375 60.375 -312 62 C-312 62.66 -312 63.32 -312 64 C-311.34 64 -310.68 64 -310 64 C-310 64.66 -310 65.32 -310 66 C-309.34 66 -308.68 66 -308 66 C-308 66.66 -308 67.32 -308 68 C-307.34 68 -306.68 68 -306 68 C-304.375 69.375 -304.375 69.375 -303 71 C-303 71.66 -303 72.32 -303 73 C-302.34 73 -301.68 73 -301 73 C-301 73.66 -301 74.32 -301 75 C-300.34 75 -299.68 75 -299 75 C-296.375 77.375 -296.375 77.375 -294 80 C-294 80.66 -294 81.32 -294 82 C-293.34 82 -292.68 82 -292 82 C-292 82.66 -292 83.32 -292 84 C-291.34 84 -290.68 84 -290 84 C-287.375 86.375 -287.375 86.375 -285 89 C-285 89.66 -285 90.32 -285 91 C-284.34 91 -283.68 91 -283 91 C-283 91.66 -283 92.32 -283 93 C-282.34 93 -281.68 93 -281 93 C-279.375 94.375 -279.375 94.375 -278 96 C-278 96.66 -278 97.32 -278 98 C-277.34 98 -276.68 98 -276 98 C-276 98.66 -276 99.32 -276 100 C-275.34 100 -274.68 100 -274 100 C-272.375 101.375 -272.375 101.375 -271 103 C-271 103.66 -271 104.32 -271 105 C-270.34 105 -269.68 105 -269 105 C-265.63779726 110.77878596 -263.82533788 115.28093269 -265 122 C-266.75530818 126.97934361 -269.52889303 131.03302061 -273 135 C-272.34 135.66 -271.68 136.32 -271 137 C-271.125 139.5 -271.125 139.5 -272 142 C-274.0625 143.3125 -274.0625 143.3125 -276 144 C-276 144.66 -276 145.32 -276 146 C-276.66 146 -277.32 146 -278 146 C-278 146.66 -278 147.32 -278 148 C-280.64 147.67 -283.28 147.34 -286 147 C-286.66 147.99 -287.32 148.98 -288 150 C-292.98445441 153.23989537 -298.12763465 154.19030814 -304 154 C-306.82643901 153.24015253 -309.29764303 152.16480904 -312 151 C-316.03104421 150.603438 -316.03104421 150.603438 -318.734375 153.0234375 C-321.63606691 156.83566032 -321.49251063 158.89604273 -321.25 163.625 C-320.93913043 170.8173913 -320.93913043 170.8173913 -322 174 C-321.01 174.33 -320.02 174.66 -319 175 C-319 175.66 -319 176.32 -319 177 C-318.34 177 -317.68 177 -317 177 C-312.25223715 183.33035047 -311.87258928 187.35535684 -312 195 C-311.34 195 -310.68 195 -310 195 C-309.01 197.475 -309.01 197.475 -308 200 C-307.34 200 -306.68 200 -306 200 C-304.7109375 201.4609375 -304.7109375 201.4609375 -303.375 203.375 C-302.92898438 204.00148437 -302.48296875 204.62796875 -302.0234375 205.2734375 C-301 207 -301 207 -301 209 C-300.34 209 -299.68 209 -299 209 C-299 209.66 -299 210.32 -299 211 C-298.34 211 -297.68 211 -297 211 C-295.63636792 212.97946592 -294.30581356 214.9819245 -293 217 C-291.37648891 218.79394446 -291.37648891 218.79394446 -290 220 C-289.01 219.67 -288.02 219.34 -287 219 C-285.78130071 216.49552484 -285.78130071 216.49552484 -285 214 C-284.34 214 -283.68 214 -283 214 C-282.88398438 213.43539062 -282.76796875 212.87078125 -282.6484375 212.2890625 C-281.93002227 209.75297018 -280.87223674 207.69561623 -279.625 205.375 C-277.48824051 201.19972283 -275.97934867 197.14326968 -274.7734375 192.6171875 C-274 190 -274 190 -272.54296875 186.375 C-270.65664106 181.4085985 -269.7970571 176.35214319 -268.9375 171.125 C-268.76686035 170.11993408 -268.5962207 169.11486816 -268.42041016 168.0793457 C-267.25786049 161.05454197 -266.36983805 154.02878864 -265.64599609 146.94702148 C-265.08679745 141.52676239 -264.21251735 136.30583832 -263 131 C-262.80792969 129.98808594 -262.61585938 128.97617188 -262.41796875 127.93359375 C-260.3257365 117.57031473 -256.60044281 107.60044281 -249 100 C-248.34 100 -247.68 100 -247 100 C-247 99.34 -247 98.68 -247 98 C-246.34 98 -245.68 98 -245 98 C-244.67 97.01 -244.34 96.02 -244 95 C-242.66666667 94.66666667 -241.33333333 94.33333333 -240 94 C-239.67 93.01 -239.34 92.02 -239 91 C-237 89.625 -237 89.625 -234 88 C-233.34644531 87.62875 -232.69289063 87.2575 -232.01953125 86.875 C-229.6931464 85.5574015 -227.35000408 84.27496209 -225 83 C-224.24847656 82.58492188 -223.49695313 82.16984375 -222.72265625 81.7421875 C-215.4518467 77.8950703 -207.81912225 75.44800532 -200 73 C-198.90300781 72.649375 -197.80601562 72.29875 -196.67578125 71.9375 C-189.7069356 69.74312794 -182.68492937 67.82615981 -175.60546875 66.02734375 C-173.0031765 65.28584553 -170.61984395 64.49209369 -168.1171875 63.5078125 C-163.80852906 61.84855495 -159.45162276 60.86789171 -154.9375 59.9375 C-148.18977036 58.51962263 -141.5642117 56.96176742 -135.0625 54.625 C-130.07383063 52.92490269 -124.98001456 51.71426928 -119.84790039 50.53369141 C-116.60143263 49.76138982 -113.73479677 48.88581098 -110.65234375 47.55859375 C-105.25801281 45.25662793 -99.65587065 43.86342037 -94.00195312 42.33789062 C-87.80352014 40.62439237 -81.93455244 38.46752104 -76 36 C-73.87692133 35.18249269 -71.7521834 34.36926641 -69.625 33.5625 C-60.7837074 30.16360685 -52.1724099 26.80729994 -44 22 C-42.34902709 21.28769345 -40.69729314 20.57705395 -39.0402832 19.87890625 C-35.14936014 18.20278766 -31.32914595 16.37423651 -27.5 14.5625 C-26.27603516 13.98918945 -26.27603516 13.98918945 -25.02734375 13.40429688 C-17.39510763 9.79644208 -10.24288956 5.56816825 -3.0390625 1.171875 C-1 0 -1 0 0 0 Z M-40 36 C-59.81274694 44.86731947 -80.07957147 52.37833054 -100.84375 58.7109375 C-103.71371817 59.58969442 -106.5624093 60.51670466 -109.40625 61.4765625 C-122.06866486 65.70463659 -134.89632551 69.15046439 -147.8125 72.5 C-149.18964172 72.85730698 -149.18964172 72.85730698 -150.59460449 73.22183228 C-154.2321063 74.16525173 -157.86973728 75.10817202 -161.50747681 76.05067444 C-203.22539955 85.62075272 -203.22539955 85.62075272 -238 109 C-238.49242187 109.51175781 -238.98484375 110.02351563 -239.4921875 110.55078125 C-249.66042477 121.55372456 -250.3542472 136.30514074 -252.02124023 150.54467773 C-253.14391 160.12184889 -254.54346464 169.55412782 -256.5 179 C-256.80236572 180.47641968 -256.80236572 180.47641968 -257.11083984 181.98266602 C-258.30935758 187.56179014 -259.89679423 192.69780058 -262 198 C-262.268125 199.0725 -262.53625 200.145 -262.8125 201.25 C-264.97933102 208.09262427 -268.30236726 214.70513742 -272.375 220.625 C-274.18822797 222.79548307 -274.18822797 222.79548307 -274 225 C-274.66 225 -275.32 225 -276 225 C-275.67 225.99 -275.34 226.98 -275 228 C-273.00480364 228.98940061 -273.00480364 228.98940061 -270.625 229.625 C-269.83351563 229.86476563 -269.04203125 230.10453125 -268.2265625 230.3515625 C-267.49179687 230.56554687 -266.75703125 230.77953125 -266 231 C-265.01 231.33 -264.02 231.66 -263 232 C-260.242597 232.09712392 -257.51122799 232.13995633 -254.75390625 232.1328125 C-253.94638412 232.13376923 -253.138862 232.13472595 -252.30686951 232.13571167 C-250.59967979 232.13639188 -248.89248748 232.13454868 -247.18530273 232.13037109 C-244.57594976 232.12502754 -241.96676945 232.13031786 -239.35742188 232.13671875 C-237.69791629 232.1360578 -236.03841081 232.1347763 -234.37890625 232.1328125 C-233.59963272 232.13483673 -232.82035919 232.13686096 -232.01747131 232.13894653 C-228.50039415 232.12377596 -225.38382624 231.92501767 -222 231 C-220.49544176 230.70094271 -218.98874113 230.41253591 -217.48046875 230.1328125 C-216.62259766 229.96910156 -215.76472656 229.80539062 -214.88085938 229.63671875 C-213.09802138 229.29799246 -211.31416516 228.96457846 -209.52929688 228.63671875 C-204.29097357 227.62588299 -199.84306158 226.22294748 -195 224 C-192.42504512 223.18168807 -189.83918388 222.46201172 -187.234375 221.74609375 C-184.75668191 221.02745178 -184.75668191 221.02745178 -182 219 C-180.71920307 218.5702954 -179.4255407 218.17812371 -178.125 217.8125 C-171.66012501 215.76083719 -165.88228997 212.31844798 -160 209 C-163.20464477 202.59071046 -176.52793216 198.57969547 -183 196 C-183.66 196 -184.32 196 -185 196 C-185 195.34 -185 194.68 -185 194 C-185.53890869 193.74831055 -186.07781738 193.49662109 -186.63305664 193.23730469 C-189.11097511 192.07791408 -191.58673926 190.91399068 -194.0625 189.75 C-194.91005859 189.35425781 -195.75761719 188.95851562 -196.63085938 188.55078125 C-201.55715708 186.23028581 -206.31287621 183.77284392 -211 181 C-207.0475208 179.49765459 -203.49159453 180.47270998 -199.5 181.3125 C-198.06530292 181.59865454 -196.63040457 181.88380173 -195.1953125 182.16796875 C-194.13231934 182.38138916 -194.13231934 182.38138916 -193.04785156 182.59912109 C-188.38515779 183.51187064 -183.68933177 184.23919396 -179 185 C-178.04996094 185.17660156 -177.09992188 185.35320312 -176.12109375 185.53515625 C-157.42913799 188.31906455 -140.16085348 184.17007251 -125 173 C-124.34 172.01 -123.68 171.02 -123 170 C-123.59087402 169.89390915 -124.18174805 169.7878183 -124.79052734 169.67851257 C-131.02161625 168.55960151 -137.25254934 167.43982574 -143.48339844 166.31958008 C-145.79911496 165.90334916 -148.11486922 165.48732814 -150.43066406 165.0715332 C-163.29616249 162.76141454 -176.15850346 160.44051478 -189 158 C-189 157.67 -189 157.34 -189 157 C-188.33991943 156.94465088 -187.67983887 156.88930176 -186.99975586 156.83227539 C-183.97882377 156.57777239 -180.95816431 156.32016102 -177.9375 156.0625 C-176.89916016 155.97548828 -175.86082031 155.88847656 -174.79101562 155.79882812 C-169.49452055 155.34484283 -164.26197297 154.76216295 -159 154 C-157.42009039 153.84799703 -155.83924671 153.70553501 -154.2578125 153.5703125 C-153.41863281 153.49683594 -152.57945312 153.42335938 -151.71484375 153.34765625 C-149.99668854 153.19994155 -148.27791469 153.05924452 -146.55859375 152.92578125 C-140.65636594 152.39250186 -135.55211341 151.02487212 -130 149 C-128.35691807 148.53189896 -126.71162715 148.0713367 -125.0625 147.625 C-115.97465974 144.91409865 -108.0265814 139.93735931 -100 135 C-99.14019531 134.50757813 -98.28039062 134.01515625 -97.39453125 133.5078125 C-95.22485218 132.14158718 -93.74146908 130.85090566 -92 129 C-90.05722885 127.32141321 -88.097605 125.66445597 -86.1328125 124.01171875 C-84.37896184 122.35744569 -82.89298807 120.72788823 -81.36669922 118.87426758 C-80.58568848 117.92575928 -79.80467773 116.97725098 -79 116 C-79.59975647 115.95210831 -80.19951294 115.90421661 -80.81744385 115.85487366 C-87.11269066 115.3521453 -93.40791425 114.84912696 -99.703125 114.34594727 C-102.04621813 114.1586998 -104.38931698 113.97152397 -106.73242188 113.78442383 C-110.11850502 113.51402749 -113.50456686 113.24336554 -116.890625 112.97265625 C-118.43825531 112.8491555 -118.43825531 112.8491555 -120.01715088 112.72315979 C-127.01268883 112.16353789 -134.00669467 111.58685114 -141 111 C-141 110.67 -141 110.34 -141 110 C-140.23816406 109.81824219 -139.47632813 109.63648438 -138.69140625 109.44921875 C-133.17462651 108.10618248 -127.76028568 106.67653003 -122.3984375 104.80859375 C-119.51602604 103.83683614 -116.60438851 102.9875953 -113.6875 102.125 C-100.56572896 98.10282543 -88.18676157 92.61783358 -77.12890625 84.453125 C-75 83 -75 83 -72 82 C-72 81.34 -72 80.68 -72 80 C-71.01 80 -70.02 80 -69 80 C-69 79.34 -69 78.68 -69 78 C-67.68 77.67 -66.36 77.34 -65 77 C-65 76.34 -65 75.68 -65 75 C-64.34 75 -63.68 75 -63 75 C-61.81390777 73.84779612 -60.63411797 72.68817385 -59.4921875 71.4921875 C-57.8842471 69.8842471 -56.18838238 68.45030172 -54.4375 67 C-51.57157809 64.57210109 -49.15515812 62.10342769 -47 59 C-47 58.34 -47 57.68 -47 57 C-46.01 56.67 -45.02 56.34 -44 56 C-42.16340748 53.8576753 -42.16340748 53.8576753 -40.4375 51.25 C-39.83808594 50.38890625 -39.23867188 49.5278125 -38.62109375 48.640625 C-37.08881936 46.14467925 -35.99356413 43.74836645 -35 41 C-34.34 41 -33.68 41 -33 41 C-29.80439959 36.93426439 -29.80439959 36.93426439 -29 32 C-32.84947812 32 -36.52629105 34.42439196 -40 36 Z M-340.25 63.5 C-341.1575 64.325 -342.065 65.15 -343 66 C-342.04882866 67.1725131 -341.08882991 68.33787015 -340.125 69.5 C-339.59132813 70.1496875 -339.05765625 70.799375 -338.5078125 71.46875 C-338.01023437 71.9740625 -337.51265625 72.479375 -337 73 C-336.34 73 -335.68 73 -335 73 C-335 73.66 -335 74.32 -335 75 C-334.34 75 -333.68 75 -333 75 C-333 75.66 -333 76.32 -333 77 C-331.66666667 78.66666667 -331.66666667 78.66666667 -330 80 C-329.34 80 -328.68 80 -328 80 C-328 80.66 -328 81.32 -328 82 C-327.34 82 -326.68 82 -326 82 C-326 82.66 -326 83.32 -326 84 C-325.34 84 -324.68 84 -324 84 C-324 84.66 -324 85.32 -324 86 C-322.66666667 87.66666667 -322.66666667 87.66666667 -321 89 C-320.34 89 -319.68 89 -319 89 C-319 89.66 -319 90.32 -319 91 C-318.34 91 -317.68 91 -317 91 C-317 91.66 -317 92.32 -317 93 C-314.66666667 95.66666667 -314.66666667 95.66666667 -312 98 C-311.34 98 -310.68 98 -310 98 C-310 98.66 -310 99.32 -310 100 C-309.34 100 -308.68 100 -308 100 C-308 100.66 -308 101.32 -308 102 C-306.66666667 103.66666667 -306.66666667 103.66666667 -305 105 C-304.34 105 -303.68 105 -303 105 C-303 105.66 -303 106.32 -303 107 C-302.34 107 -301.68 107 -301 107 C-301 107.66 -301 108.32 -301 109 C-300.34 109 -299.68 109 -299 109 C-299 109.66 -299 110.32 -299 111 C-297.66666667 112.66666667 -297.66666667 112.66666667 -296 114 C-295.34 114 -294.68 114 -294 114 C-294 114.66 -294 115.32 -294 116 C-293.34 116 -292.68 116 -292 116 C-292 116.66 -292 117.32 -292 118 C-289.66666667 120.66666667 -289.66666667 120.66666667 -287 123 C-286.34 123 -285.68 123 -285 123 C-284.67 123.66 -284.34 124.32 -284 125 C-280.22132288 122.54687863 -280.22132288 122.54687863 -278.375 118.625 C-279.30249268 114.72953073 -281.20624556 112.86027241 -284 110 C-284.66 110 -285.32 110 -286 110 C-286.33 109.01 -286.66 108.02 -287 107 C-288.87508162 104.7914234 -288.87508162 104.7914234 -291 103 C-291.66 103 -292.32 103 -293 103 C-293.33 102.01 -293.66 101.02 -294 100 C-294.66 100 -295.32 100 -296 100 C-296.66 98.68 -297.32 97.36 -298 96 C-298.66 96 -299.32 96 -300 96 C-300.33 95.01 -300.66 94.02 -301 93 C-302.87508162 90.7914234 -302.87508162 90.7914234 -305 89 C-305.66 89 -306.32 89 -307 89 C-307.495 87.515 -307.495 87.515 -308 86 C-309.44850677 84.78193749 -310.9008164 83.56771281 -312.3828125 82.390625 C-314.93721118 80.19408894 -316.88302892 77.61835896 -319 75 C-321.06167261 72.68581709 -321.06167261 72.68581709 -323 71 C-323.66 71 -324.32 71 -325 71 C-325.268125 70.401875 -325.53625 69.80375 -325.8125 69.1875 C-326.99917406 67.00152146 -328.09599113 65.58667406 -330 64 C-330.66 64 -331.32 64 -332 64 C-332.33 63.01 -332.66 62.02 -333 61 C-337.29558621 60.98352501 -337.29558621 60.98352501 -340.25 63.5 Z M-353 76 C-353.845625 76.9075 -354.69125 77.815 -355.5625 78.75 C-356.03816406 79.26046875 -356.51382813 79.7709375 -357.00390625 80.296875 C-358.20250555 81.94618864 -358.20250555 81.94618864 -357.75073242 83.87524414 C-355.15441654 91.22345135 -346.67726646 97.44679939 -341.25 102.8125 C-340.49589844 103.56208984 -339.74179687 104.31167969 -338.96484375 105.08398438 C-337.57440925 106.46577497 -336.18294093 107.84652673 -334.79003906 109.22583008 C-333.63350023 110.37211591 -332.49803449 111.54024456 -331.38964844 112.7331543 C-330.06707008 114.22456655 -330.06707008 114.22456655 -328 114 C-328 114.66 -328 115.32 -328 116 C-327.34 116 -326.68 116 -326 116 C-326 116.66 -326 117.32 -326 118 C-323.66666667 120.66666667 -323.66666667 120.66666667 -321 123 C-320.34 123 -319.68 123 -319 123 C-319 123.66 -319 124.32 -319 125 C-318.34 125 -317.68 125 -317 125 C-317 125.66 -317 126.32 -317 127 C-315.34551316 128.634689 -315.34551316 128.634689 -313.25 130.3125 C-310.72393116 132.43528416 -308.85096075 134.20164134 -306.875 136.875 C-305.09970584 139.22972975 -305.09970584 139.22972975 -302.0625 140.0625 C-298.14364091 139.98252328 -296.75878863 138.67764779 -294 136 C-295.35321838 132.97812308 -296.86317171 130.89158953 -299.20874023 128.56420898 C-300.18501625 127.58815956 -300.18501625 127.58815956 -301.18101501 126.59239197 C-301.883116 125.90061356 -302.58521698 125.20883514 -303.30859375 124.49609375 C-304.03111832 123.77639908 -304.75364288 123.05670441 -305.49806213 122.31520081 C-307.8065522 120.01789319 -310.12189304 117.72763168 -312.4375 115.4375 C-313.99329696 113.8917373 -315.54864087 112.34551847 -317.10351562 110.79882812 C-320.53145909 107.39053381 -323.96373195 103.98666928 -327.39988708 100.58665466 C-328.4840999 99.51156096 -329.54506236 98.4125973 -330.58363342 97.29335022 C-331.9264771 95.77522971 -331.9264771 95.77522971 -334 96 C-334 95.34 -334 94.68 -334 94 C-334.66 94 -335.32 94 -336 94 C-336 93.34 -336 92.68 -336 92 C-337.55383147 90.46762449 -337.55383147 90.46762449 -339.5625 88.875 C-343.2892746 85.7241213 -346.44125709 82.35216006 -349.5546875 78.6015625 C-350.92809017 76.88412185 -350.92809017 76.88412185 -353 76 Z M-367 98 C-367 98.66 -367 99.32 -367 100 C-367.639375 100.2475 -368.27875 100.495 -368.9375 100.75 C-371.11613333 101.80948502 -371.11613333 101.80948502 -371.8513031 103.82025146 C-372.23635511 106.10731168 -372.23635511 106.10731168 -370.60169983 107.99957275 C-369.88888351 108.70128601 -369.1760672 109.40299927 -368.44165039 110.12597656 C-367.64074478 110.92650452 -366.83983917 111.72703247 -366.0146637 112.55181885 C-364.69449501 113.83327789 -364.69449501 113.83327789 -363.34765625 115.140625 C-362.45839951 116.02280701 -361.56914276 116.90498901 -360.65293884 117.81390381 C-358.28603983 120.15751513 -355.90892416 122.48970455 -353.52618408 124.81713867 C-351.09766182 127.1945203 -348.68322644 129.58611328 -346.26757812 131.9765625 C-341.52462936 136.66428666 -336.76770494 141.33746397 -332 146 C-330.82460004 145.07347299 -329.65989423 144.13336613 -328.5 143.1875 C-327.52546875 142.40439453 -327.52546875 142.40439453 -326.53125 141.60546875 C-324.65490872 140.00795167 -324.65490872 140.00795167 -325 137 C-326.48793068 135.05277992 -326.48793068 135.05277992 -328.5324707 133.0793457 C-329.30359695 132.29876297 -330.07472321 131.51818024 -330.86921692 130.71394348 C-331.71288315 129.87634995 -332.55654938 129.03875641 -333.42578125 128.17578125 C-334.71357735 126.88367989 -334.71357735 126.88367989 -336.02738953 125.56547546 C-337.84716982 123.74365085 -339.67075538 121.92562061 -341.49780273 120.11108398 C-344.30087226 117.32406117 -347.08761441 114.52143413 -349.87304688 111.71679688 C-351.63966386 109.95216226 -353.4072112 108.18845844 -355.17578125 106.42578125 C-356.01337479 105.58211502 -356.85096832 104.73844879 -357.71394348 103.86921692 C-358.49452621 103.09809067 -359.27510895 102.32696442 -360.0793457 101.5324707 C-360.76551468 100.84868851 -361.45168365 100.16490631 -362.15864563 99.46040344 C-364.00004957 97.68930017 -364.00004957 97.68930017 -367 98 Z M-400.8046875 123.3984375 C-401.5286673 124.11101715 -402.25264709 124.8235968 -402.99856567 125.55776978 C-404.51907622 127.05946675 -406.03676 128.56403071 -407.55175781 130.07128906 C-409.87470558 132.37470806 -412.21810688 134.65593819 -414.5625 136.9375 C-416.04037428 138.40232355 -417.51698181 139.86842648 -418.9921875 141.3359375 C-419.69519989 142.01425629 -420.39821228 142.69257507 -421.12252808 143.39144897 C-424.97854535 147.2284153 -424.97854535 147.2284153 -426.55664062 152.31933594 C-425.8086496 155.92150323 -424.28999871 157.37814001 -421.625 159.875 C-420.81289063 160.65617187 -420.00078125 161.43734375 -419.1640625 162.2421875 C-417.20593724 164.21016238 -417.20593724 164.21016238 -415 164 C-414.73832031 164.59941406 -414.47664063 165.19882813 -414.20703125 165.81640625 C-412.92779812 168.13061764 -411.73749558 169.29659445 -409.6875 170.9375 C-405.77577233 174.1675158 -402.18068377 177.47653707 -399.0625 181.5 C-397.0007716 184.15624809 -397.0007716 184.15624809 -394 186.5 C-391 189 -391 189 -389.125 191.375 C-386.15029334 195.04963764 -382.64093102 197.99907638 -379 201 C-378.360625 201.58523437 -377.72125 202.17046875 -377.0625 202.7734375 C-375.05403552 204.24154787 -375.05403552 204.24154787 -372.6073761 203.77861023 C-369.66714685 202.90060396 -368.39134461 201.90788833 -366.21948242 199.76879883 C-365.51913376 199.08751419 -364.8187851 198.40622955 -364.09721375 197.70429993 C-363.3574379 196.96270126 -362.61766205 196.2211026 -361.85546875 195.45703125 C-360.7007885 194.31520638 -360.7007885 194.31520638 -359.52278137 193.15031433 C-357.89982455 191.53883489 -356.28207235 189.9220992 -354.66918945 188.30053711 C-352.19648198 185.82150496 -349.69833071 183.37030134 -347.19726562 180.91992188 C-345.62337975 179.3505816 -344.05105968 177.77966909 -342.48046875 176.20703125 C-341.73057175 175.47555374 -340.98067474 174.74407623 -340.20805359 173.99043274 C-337.3319241 171.06196575 -335.28604605 168.93832806 -334.07861328 164.97753906 C-335.54106339 160.25150791 -338.74409827 157.52033623 -342.26171875 154.15234375 C-343.00452591 153.41802628 -343.74733307 152.6837088 -344.51264954 151.92713928 C-346.89054746 149.58279673 -349.28840567 147.26012726 -351.6875 144.9375 C-353.28457168 143.37053426 -354.88029136 141.80218926 -356.47460938 140.23242188 C-359.41186619 137.34412798 -362.35665266 134.46402638 -365.3112793 131.59350586 C-373.9990926 123.1440238 -373.9990926 123.1440238 -376.6875 119.6875 C-377.450625 118.800625 -378.21375 117.91375 -379 117 C-379.66 117 -380.32 117 -381 117 C-381 116.34 -381 115.68 -381 115 C-388.56833126 108.44077958 -395.22024793 117.88270345 -400.8046875 123.3984375 Z M-435.62890625 167.53125 C-436.26699219 168.1809375 -436.90507812 168.830625 -437.5625 169.5 C-438.20316406 170.1496875 -438.84382813 170.799375 -439.50390625 171.46875 C-439.99761719 171.9740625 -440.49132812 172.479375 -441 173 C-434.48366179 180.77138368 -427.38067238 187.91433078 -420.24072266 195.109375 C-418.65463269 196.71216065 -417.07394636 198.32031053 -415.49853516 199.93359375 C-413.21665277 202.26990809 -410.91905723 204.58964674 -408.6171875 206.90625 C-407.91294647 207.6331604 -407.20870544 208.3600708 -406.48312378 209.10900879 C-405.82208649 209.76719604 -405.16104919 210.4253833 -404.47998047 211.10351562 C-403.9029538 211.68862915 -403.32592712 212.27374268 -402.73141479 212.87658691 C-401.05675973 214.20734362 -401.05675973 214.20734362 -398.95437622 213.87243652 C-396.71007495 212.87057701 -395.73589505 211.87741854 -394.25 209.9375 C-393.13625 208.4834375 -393.13625 208.4834375 -392 207 C-397.3255364 201.65134033 -402.65373728 196.30534771 -407.98539639 190.96279144 C-410.46074909 188.48220987 -412.93515884 186.00070242 -415.4074707 183.51708984 C-418.24676665 180.66489645 -421.09005665 177.81671518 -423.93359375 174.96875 C-424.82525742 174.07192505 -425.71692108 173.1751001 -426.63560486 172.25109863 C-427.45638016 171.4302478 -428.27715546 170.60939697 -429.12280273 169.76367188 C-429.84894272 169.03531128 -430.5750827 168.30695068 -431.32322693 167.55651855 C-433.48572326 165.47259974 -433.48572326 165.47259974 -435.62890625 167.53125 Z M-459.875 182.9375 C-460.57625 183.618125 -461.2775 184.29875 -462 185 C-460.41894806 188.88565244 -457.77225628 191.49084864 -454.83178711 194.37939453 C-454.30640854 194.90345886 -453.78102997 195.42752319 -453.23973083 195.96746826 C-451.50682416 197.69389802 -449.76705581 199.41324312 -448.02734375 201.1328125 C-446.82139693 202.33248763 -445.61596467 203.53268022 -444.411026 204.73336792 C-441.24110931 207.88999186 -438.06567127 211.04099761 -434.88861084 214.19042969 C-429.7984627 219.23742614 -424.71505154 224.29118641 -419.63482857 229.34817123 C-417.85729581 231.11546101 -416.07640046 232.87931037 -414.29515076 234.64285278 C-413.20959253 235.72158523 -412.12414245 236.80042652 -411.03881836 237.87939453 C-410.54061584 238.37085968 -410.04241333 238.86232483 -409.52911377 239.36868286 C-406.11363476 242.77273048 -406.11363476 242.77273048 -405 245 C-404.34 245 -403.68 245 -403 245 C-403 244.34 -403 243.68 -403 243 C-402.34 243 -401.68 243 -401 243 C-401 242.34 -401 241.68 -401 241 C-400.34 241 -399.68 241 -399 241 C-398.40869572 238.34065953 -398.40869572 238.34065953 -399 235 C-400.21381135 233.20139955 -400.21381135 233.20139955 -401.88256836 231.44311523 C-402.84137405 230.38880814 -402.84137405 230.38880814 -403.81954956 229.3132019 C-407.92760154 224.9550411 -412.10361977 220.66690957 -416.31640625 216.41015625 C-417.04024159 215.67833539 -417.04024159 215.67833539 -417.77869987 214.93173027 C-420.32416349 212.35978562 -422.87312163 209.791358 -425.42456055 207.2253418 C-427.52537936 205.11110027 -429.61865215 202.98978725 -431.70581055 200.86206055 C-434.24449494 198.27407348 -436.79522358 195.69856542 -439.35511589 193.13155937 C-440.32298768 192.15698949 -441.28661173 191.1781811 -442.24575996 190.19502449 C-443.5850017 188.82413718 -444.94171384 187.47038344 -446.29907227 186.11743164 C-447.06405533 185.34436172 -447.82903839 184.57129181 -448.61720276 183.77479553 C-452.6473438 180.7729974 -455.66305186 180.09901321 -459.875 182.9375 Z M-337.75 189 C-338.62140625 189.81726563 -339.4928125 190.63453125 -340.390625 191.4765625 C-341.25171875 192.30929688 -342.1128125 193.14203125 -343 194 C-343.77859375 194.75023437 -344.5571875 195.50046875 -345.359375 196.2734375 C-350.89344224 201.29019475 -350.89344224 201.29019475 -353.3125 208.0625 C-353.209375 209.031875 -353.10625 210.00125 -353 211 C-350.28508074 213.2053947 -350.28508074 213.2053947 -347.72265625 213.01953125 C-343.70108228 211.5136047 -341.34723132 208.77134643 -338.4375 205.6875 C-337.87353516 205.10548828 -337.30957031 204.52347656 -336.72851562 203.92382812 C-335.63643774 202.79598628 -334.54945005 201.66318751 -333.46826172 200.52490234 C-332.21129302 199.21944399 -330.9085941 197.95828413 -329.59765625 196.70703125 C-327.77222348 195.14630438 -327.77222348 195.14630438 -328 193 C-327.34 193 -326.68 193 -326 193 C-326.54723683 189.62537285 -327.0549 187.91765 -329 185 C-333.81001537 185 -334.35978475 185.8041283 -337.75 189 Z M-473 196 C-475.30665226 198.66706668 -476.87751513 200.6325454 -478 204 C-475.56562804 208.2681873 -472.58280698 211.68020106 -469.14306641 215.16333008 C-468.43975945 215.87912231 -468.43975945 215.87912231 -467.72224426 216.609375 C-466.18735926 218.16814572 -464.6451153 219.71934623 -463.1015625 221.26953125 C-462.02298956 222.35708134 -460.94448935 223.44470357 -459.86605835 224.53239441 C-457.61199015 226.80289288 -455.35361853 229.06901441 -453.09277344 231.33276367 C-450.20026435 234.23067437 -447.32428994 237.1444281 -444.45195961 240.06232166 C-442.23331826 242.31072128 -440.00349196 244.54776833 -437.7704277 246.78183556 C-436.70502178 247.85144011 -435.64372616 248.92515563 -434.58671951 250.00306129 C-433.10798508 251.50870597 -431.61419582 252.99767653 -430.11572266 254.48364258 C-428.84808578 255.75888542 -428.84808578 255.75888542 -427.55484009 257.05989075 C-424.58650878 259.31399936 -422.71215552 259.91513319 -419 260 C-416.1028059 257.68726558 -416.1028059 257.68726558 -414 255 C-418.10101978 250.09999919 -422.37399305 245.53067426 -426.9375 241.0625 C-430.67445125 237.37267359 -434.36598957 233.70954581 -437.75 229.6875 C-440.14626355 226.84760388 -442.71774559 224.4089739 -445.51171875 221.9609375 C-451.76435032 216.38323473 -457.62110571 210.44218133 -463.50170898 204.4777832 C-464.88588952 203.07569058 -466.27297005 201.67646273 -467.66015625 200.27734375 C-468.47105713 199.45484131 -469.28195801 198.63233887 -470.11743164 197.78491211 C-471.68857644 195.88532761 -471.68857644 195.88532761 -473 196 Z M-320 206 C-323.96 209.96 -327.92 213.92 -332 218 C-331.67 218.99 -331.34 219.98 -331 221 C-328.49552484 222.21869929 -328.49552484 222.21869929 -326 223 C-326 223.66 -326 224.32 -326 225 C-325.34 225 -324.68 225 -324 225 C-324 225.66 -324 226.32 -324 227 C-322.51363242 228.3606009 -322.51363242 228.3606009 -320.625 229.625 C-319.99851562 230.07101562 -319.37203125 230.51703125 -318.7265625 230.9765625 C-317.04777357 232.16996969 -317.04777357 232.16996969 -315 232 C-314.67 232.99 -314.34 233.98 -314 235 C-311.85038218 236.94946422 -311.85038218 236.94946422 -309.25 238.875 C-305.57131541 241.73562017 -302.25478793 244.65955976 -299 248 C-297.67254887 249.15264275 -296.33866147 250.297896 -295 251.4375 C-292.54244568 253.55846621 -290.34107459 255.65338158 -288.3125 258.1875 C-286.13498564 261.03306227 -286.13498564 261.03306227 -283.5 263 C-281.38624893 264.69100085 -279.97540468 266.16283518 -278.3125 268.25 C-277.549375 269.1575 -276.78625 270.065 -276 271 C-275.34 271 -274.68 271 -274 271 C-273 273 -272 275 -271 277 C-270.34 277 -269.68 277 -269 277 C-269 277.66 -269 278.32 -269 279 C-268.02939315 280.02855352 -267.02335474 281.02391338 -266 282 C-257.23652293 292.53011966 -249.62375795 304.057016 -241.91308594 315.36474609 C-238.87934092 319.78922942 -235.70579073 324.05728266 -232.3515625 328.24609375 C-231 330 -231 330 -229.375 332.75 C-227.61782499 335.62537728 -225.43655551 337.67947094 -223 340 C-220.19810324 342.73005325 -217.56077435 345.49426368 -215.0625 348.5 C-213.08346868 350.85330408 -211.07574176 352.87562451 -208.6875 354.8125 C-206 357 -206 357 -205 359 C-204.34 359 -203.68 359 -203 359 C-203 359.66 -203 360.32 -203 361 C-201.00669158 362.34331654 -199.00615134 363.67594012 -197 365 C-196.34 365.99 -195.68 366.98 -195 368 C-194.01 368 -193.02 368 -192 368 C-192 368.66 -192 369.32 -192 370 C-188.77885843 372.31592022 -188.77885843 372.31592022 -185 373 C-185 373.66 -185 374.32 -185 375 C-183.36205542 376.04638202 -181.68813105 377.03667693 -180 378 C-178.13216065 379.31411109 -176.27826659 380.64822703 -174.4375 382 C-173.50808594 382.680625 -172.57867187 383.36125 -171.62109375 384.0625 C-170.0042506 385.25766275 -168.40769404 386.48158452 -166.84765625 387.75 C-164.9576652 389.28017235 -164.9576652 389.28017235 -162 389 C-162 389.66 -162 390.32 -162 391 C-160.05017465 392.40568804 -158.04049422 393.7295036 -156 395 C-155.13375 395.598125 -154.2675 396.19625 -153.375 396.8125 C-151.14296914 398.1769679 -151.14296914 398.1769679 -149 397.875 C-146.42420204 396.74808839 -144.25370146 395.7055038 -142 394 C-140.791684 390.72272783 -140.84941819 389.35878175 -142.21484375 386.10546875 C-142.78332031 385.14253906 -143.35179687 384.17960938 -143.9375 383.1875 C-144.50339844 382.21167969 -145.06929687 381.23585938 -145.65234375 380.23046875 C-146.31943359 379.12638672 -146.31943359 379.12638672 -147 378 C-147.66 378 -148.32 378 -149 378 C-149.23847656 377.3090625 -149.47695313 376.618125 -149.72265625 375.90625 C-151.23566568 372.46380653 -153.2556023 369.53844235 -155.4375 366.5 C-157.62705092 363.42105564 -159.78360806 360.37881318 -161.66015625 357.09375 C-162.10230469 356.4028125 -162.54445313 355.711875 -163 355 C-163.66 355 -164.32 355 -165 355 C-165.1546875 354.1028125 -165.1546875 354.1028125 -165.3125 353.1875 C-166.11135651 350.64568383 -167.10071545 349.82623514 -169 348 C-169.45375 347.21625 -169.9075 346.4325 -170.375 345.625 C-172.23475321 342.62078328 -174.47616007 340.45912609 -177 338 C-177.66 337.01 -178.32 336.02 -179 335 C-179.66 335 -180.32 335 -181 335 C-181.21011719 334.46375 -181.42023438 333.9275 -181.63671875 333.375 C-183.52416076 330.08684887 -186.12289866 327.6278088 -188.8125 325 C-189.33392578 324.47921875 -189.85535156 323.9584375 -190.39257812 323.421875 C-193.45082928 320.39798622 -196.61270146 317.65808844 -200 315 C-200.721875 314.2575 -201.44375 313.515 -202.1875 312.75 C-203.81989123 310.7684685 -203.81989123 310.7684685 -206 311 C-206.33 310.01 -206.66 309.02 -207 308 C-209.01508358 307.26676204 -209.01508358 307.26676204 -211 307 C-211 306.34 -211 305.68 -211 305 C-213.40560586 303.17494987 -213.40560586 303.17494987 -216.375 301.375 C-217.37273437 300.74335938 -218.37046875 300.11171875 -219.3984375 299.4609375 C-221.79335831 297.83678682 -221.79335831 297.83678682 -224 298 C-224 297.34 -224 296.68 -224 296 C-225.0725 295.401875 -226.145 294.80375 -227.25 294.1875 C-229.40453641 292.96441973 -231.33064445 291.74978258 -233.3125 290.25 C-234.9178462 288.80159082 -234.9178462 288.80159082 -237 289 C-237 288.34 -237 287.68 -237 287 C-238.71801282 285.63362347 -238.71801282 285.63362347 -240.875 284.375 C-241.95394531 283.70597656 -241.95394531 283.70597656 -243.0546875 283.0234375 C-244.92864762 281.84480002 -244.92864762 281.84480002 -247 282 C-247 281.34 -247 280.68 -247 280 C-249.96187272 277.82796 -252.50685991 276.16438003 -256 275 C-256 274.34 -256 273.68 -256 273 C-256.61875 272.9175 -257.2375 272.835 -257.875 272.75 C-260 272 -260 272 -260.8828125 270.1875 C-262.21553241 267.5779785 -263.78543389 266.1551782 -266 264.25 C-266.70125 263.63640625 -267.4025 263.0228125 -268.125 262.390625 C-269.8786657 260.80143078 -269.8786657 260.80143078 -272 261 C-272.21269531 260.44957031 -272.42539062 259.89914062 -272.64453125 259.33203125 C-274.46703015 256.1964928 -276.99370633 254.0535145 -279.6875 251.6875 C-280.773073 250.71197985 -281.85771174 249.73541902 -282.94140625 248.7578125 C-283.72862061 248.05060059 -283.72862061 248.05060059 -284.53173828 247.32910156 C-286.43195269 245.60898729 -288.29142467 243.85343405 -290.125 242.0625 C-290.64320313 241.55847656 -291.16140625 241.05445313 -291.6953125 240.53515625 C-293 239 -293 239 -294.03125 236.92578125 C-294.94463809 234.77210017 -294.94463809 234.77210017 -297.375 233.125 C-300.31710747 230.74329396 -301.93049688 228.13993578 -304 225 C-304.66 225 -305.32 225 -306 225 C-306.3403125 224.2265625 -306.3403125 224.2265625 -306.6875 223.4375 C-308.48217618 220.10452995 -310.49965015 216.85296329 -313 214 C-313.66 214 -314.32 214 -315 214 C-315.33 212.68 -315.66 211.36 -316 210 C-316.66 210 -317.32 210 -318 210 C-318.66 208.68 -319.32 207.36 -320 206 Z " fill="#010102" transform="translate(500,44)"/>
<path d="M0 0 C-3 2 -3 2 -5 2 C-5.38152977 2.87146919 -5.38152977 2.87146919 -5.77076721 3.76054382 C-7.13421769 6.24452214 -8.64073461 7.85488137 -10.66772461 9.83129883 C-11.41867905 10.56919144 -12.16963348 11.30708405 -12.94334412 12.06733704 C-13.754814 12.85593613 -14.56628387 13.64453522 -15.40234375 14.45703125 C-17.11420845 16.14359995 -18.82578814 17.83045798 -20.53710938 19.51757812 C-23.23694603 22.16781341 -25.93983216 24.8147746 -28.64819336 27.45629883 C-31.26261767 30.01018309 -33.86435834 32.5764658 -36.46484375 35.14453125 C-37.67901222 36.31832085 -37.67901222 36.31832085 -38.91770935 37.51582336 C-43.21555249 41.77515377 -46.10416698 45.22055855 -48 51 C-48.33 51 -48.66 51 -49 51 C-49.42451993 44.91424374 -46.62995469 41.6451059 -43 37 C-40.40604835 34.05246781 -37.66270532 31.2869193 -34.86328125 28.53515625 C-34.10202438 27.77577255 -33.34076752 27.01638885 -32.55644226 26.23399353 C-30.96066119 24.64488667 -29.36131064 23.05935683 -27.75854492 21.47729492 C-25.3018137 19.05195022 -22.85612964 16.61588135 -20.41210938 14.17773438 C-18.85479188 12.62957916 -17.29687053 11.08203109 -15.73828125 9.53515625 C-15.00700516 8.80813004 -14.27572906 8.08110382 -13.52229309 7.33204651 C-12.84115952 6.66052048 -12.16002594 5.98899445 -11.45825195 5.29711914 C-10.56273369 4.41184288 -10.56273369 4.41184288 -9.64912415 3.50868225 C-6.34437669 0.48537206 -4.38666478 -0.23711702 0 0 Z " fill="#111315" transform="translate(109,144)"/>
<path d="M0 0 C6.36508567 5.24820057 12.15322975 11.02471452 17.96484375 16.8671875 C19.00837079 17.91258325 20.05212152 18.95775575 21.09608459 20.00271606 C23.82230745 22.7327284 26.54551181 25.46573193 29.26806641 28.19940186 C32.05512459 30.99675154 34.84507146 33.79121701 37.63476562 36.5859375 C43.09265081 42.05449694 48.54734559 47.52622445 54 53 C53.01 53.33 52.02 53.66 51 54 C44.3416333 47.41105688 37.69133516 40.81410754 31.05127716 34.20671368 C27.96797862 31.13909002 24.88194379 28.07432684 21.78955078 25.01586914 C18.80690984 22.06575645 15.83159653 19.1084358 12.86128235 16.14591408 C11.72515811 15.0153451 10.58639106 13.88742569 9.44499207 12.76218224 C7.85018959 11.18906693 6.2649333 9.60690385 4.68164062 8.0222168 C3.32262634 6.67319527 3.32262634 6.67319527 1.93615723 5.29692078 C0 3 0 3 0 0 Z " fill="#0F2242" transform="translate(14,259)"/>
<path d="M0 0 C0.66 0 1.32 0 2 0 C2 0.66 2 1.32 2 2 C2.66 2 3.32 2 4 2 C4 2.66 4 3.32 4 4 C4.66 4 5.32 4 6 4 C6 4.66 6 5.32 6 6 C6.99 6.33 7.98 6.66 9 7 C9 7.66 9 8.32 9 9 C9.66 9 10.32 9 11 9 C11 9.66 11 10.32 11 11 C11.66 11 12.32 11 13 11 C13 11.66 13 12.32 13 13 C13.639375 13.268125 14.27875 13.53625 14.9375 13.8125 C17 15 17 15 18 18 C18.66 18 19.32 18 20 18 C20 18.66 20 19.32 20 20 C20.66 20 21.32 20 22 20 C22 20.66 22 21.32 22 22 C22.99 22.33 23.98 22.66 25 23 C25 23.66 25 24.32 25 25 C25.66 25 26.32 25 27 25 C27 25.66 27 26.32 27 27 C27.66 27 28.32 27 29 27 C29 27.66 29 28.32 29 29 C29.66 29 30.32 29 31 29 C31 29.66 31 30.32 31 31 C31.99 31.33 32.98 31.66 34 32 C34 32.66 34 33.32 34 34 C34.66 34 35.32 34 36 34 C36 34.66 36 35.32 36 36 C36.66 36 37.32 36 38 36 C38 36.66 38 37.32 38 38 C38.639375 38.268125 39.27875 38.53625 39.9375 38.8125 C42 40 42 40 43 43 C44.32 43 45.64 43 47 43 C47.99 43 48.98 43 50 43 C49.01 44.32 48.02 45.64 47 47 C43.52390466 45.50653729 41.26709055 43.52025581 38.59863281 40.85742188 C37.7380426 40.00313599 36.87745239 39.1488501 35.99078369 38.26867676 C35.07085632 37.34470093 34.15092896 36.4207251 33.203125 35.46875 C32.24506363 34.51203629 31.28670557 33.5556196 30.32806396 32.5994873 C28.32432736 30.59869437 26.32424111 28.59434051 24.32666016 26.58740234 C21.7620617 24.01137893 19.18854789 21.44447901 16.61226273 18.88014984 C14.63387554 16.9089754 12.660259 14.93308003 10.6880722 12.95570374 C9.2792281 11.54487229 7.86634682 10.13807611 6.45343018 8.73132324 C5.60544861 7.87703735 4.75746704 7.02275146 3.88378906 6.14257812 C3.1319635 5.38916138 2.38013794 4.63574463 1.60552979 3.85949707 C0 2 0 2 0 0 Z " fill="#090B22" transform="translate(170,124)"/>
<path d="M0 0 C6.18358312 5.11854711 11.85237565 10.68873383 17.52734375 16.359375 C18.52617874 17.35499113 19.52508645 18.35053431 20.52406311 19.3460083 C22.60252791 21.41852463 24.67895582 23.49305714 26.75415039 25.56884766 C29.4179043 28.23270403 32.08852247 30.88956537 34.76087093 33.54479599 C36.81881496 35.59165784 38.87223482 37.64301155 40.92437935 39.69568634 C41.90800418 40.67812936 42.89325497 41.65894721 43.8801403 42.63811493 C45.25154804 43.9997812 46.61607018 45.36837193 47.98022461 46.73730469 C48.75853134 47.5141864 49.53683807 48.29106812 50.33872986 49.0914917 C52 51 52 51 52 53 C48.57995317 51.85998439 47.57039309 50.36355885 45.38671875 47.609375 C43.84715152 45.73360255 43.84715152 45.73360255 41 43.5 C37.89294284 40.9107857 35.58386262 38.10063514 33 35 C31.00334402 33.32932867 29.00348966 31.66247014 27 30 C26.360625 29.195625 25.72125 28.39125 25.0625 27.5625 C22.76957562 24.71371516 20.24125683 22.60175701 17.390625 20.33203125 C16.70226562 19.67267578 16.70226562 19.67267578 16 19 C16 18.34 16 17.68 16 17 C15.01 16.67 14.02 16.34 13 16 C11.75492542 14.5583347 10.51461109 13.11134887 9.328125 11.62109375 C6.86395439 8.61335609 4.02976195 5.95874389 1.1875 3.3125 C0 2 0 2 0 0 Z " fill="#10112A" transform="translate(169,106)"/>
<path d="M0 0 C2.70296451 1.06634964 4.6101979 2.30058517 7 4 C7 4.66 7 5.32 7 6 C2.25 4.125 2.25 4.125 0 3 C-5.28388337 2.47333842 -9.65027236 2.31286593 -14.4375 4.75 C-16.72506666 6.75859511 -18.92843161 8.7690802 -21 11 C-21.5775 10.649375 -22.155 10.29875 -22.75 9.9375 C-24.90283382 8.84620354 -24.90283382 8.84620354 -27 9.125 C-29.73634225 10.32214973 -31.20712001 11.60949334 -33 14 C-32.85974801 16.70705512 -32.85974801 16.70705512 -32 19 C-33.32 18.34 -34.64 17.68 -36 17 C-36 14 -36 14 -34.03125 11.73828125 C-33.1959375 10.93777344 -32.360625 10.13726562 -31.5 9.3125 C-30.6646875 8.50425781 -29.829375 7.69601563 -28.96875 6.86328125 C-27.99421875 5.94095703 -27.99421875 5.94095703 -27 5 C-25.35 5.99 -23.7 6.98 -22 8 C-21.45730469 7.59007813 -20.91460937 7.18015625 -20.35546875 6.7578125 C-19.64003906 6.21898438 -18.92460937 5.68015625 -18.1875 5.125 C-17.47980469 4.59132813 -16.77210938 4.05765625 -16.04296875 3.5078125 C-10.60326388 -0.50696012 -6.65717041 -0.79626795 0 0 Z " fill="#0B1C39" transform="translate(170,91)"/>
<path d="M0 0 C-0.99 0.66 -1.98 1.32 -3 2 C-12.38506258 8.44978333 -20.09538941 16.87399474 -28.0625 24.9375 C-29.51450547 26.39955396 -30.96697559 27.86114662 -32.41992188 29.32226562 C-35.95199822 32.8762105 -39.47771345 36.43635339 -43 40 C-43 37 -43 37 -41.69145203 35.32395935 C-41.0787294 34.71488235 -40.46600677 34.10580536 -39.8347168 33.47827148 C-39.14367355 32.78422714 -38.45263031 32.0901828 -37.74064636 31.37510681 C-36.98447525 30.6312825 -36.22830414 29.88745819 -35.44921875 29.12109375 C-34.6794722 28.35322037 -33.90972565 27.58534698 -33.11665344 26.79420471 C-31.48498598 25.16926855 -29.8497205 23.54793864 -28.21118164 21.92993164 C-25.70138241 19.45121051 -23.20233806 16.96205064 -20.70507812 14.47070312 C-19.1204116 12.89520955 -17.53514481 11.32031945 -15.94921875 9.74609375 C-15.19912033 9.00024521 -14.44902191 8.25439667 -13.67619324 7.48594666 C-12.97569351 6.79505447 -12.27519379 6.10416229 -11.5534668 5.39233398 C-10.93835739 4.78405258 -10.32324799 4.17577118 -9.6894989 3.54905701 C-6.37139347 0.5067736 -4.41301935 -0.23854159 0 0 Z " fill="#002E63" transform="translate(109,144)"/>
<path d="M0 0 C1.32 0.33 2.64 0.66 4 1 C4 1.66 4 2.32 4 3 C4.66 3 5.32 3 6 3 C6 3.66 6 4.32 6 5 C6.66 5 7.32 5 8 5 C8 5.66 8 6.32 8 7 C8.639375 7.268125 9.27875 7.53625 9.9375 7.8125 C12 9 12 9 13 12 C13.66 12 14.32 12 15 12 C15 12.66 15 13.32 15 14 C15.66 14 16.32 14 17 14 C17 14.66 17 15.32 17 16 C17.639375 16.268125 18.27875 16.53625 18.9375 16.8125 C21 18 21 18 22 21 C24.00016466 22.20882096 24.00016466 22.20882096 26 23 C26 23.66 26 24.32 26 25 C26.99 25.33 27.98 25.66 29 26 C29 26.66 29 27.32 29 28 C30.32 28.66 31.64 29.32 33 30 C27.5456593 29.70389446 24.98073179 26.51377169 21.38671875 22.8125 C20.77230423 22.19479736 20.15788971 21.57709473 19.52485657 20.94067383 C18.2318615 19.63727602 16.943636 18.32913159 15.65991211 17.01660156 C13.68606825 14.99853617 11.69903243 12.99426373 9.70898438 10.9921875 C8.4549467 9.72473204 7.20166447 8.45652858 5.94921875 7.1875 C5.3524382 6.58333252 4.75565765 5.97916504 4.14079285 5.35668945 C0 1.1182774 0 1.1182774 0 0 Z " fill="#111835" transform="translate(166,155)"/>
<path d="M0 0 C2.86697492 1.28519565 4.97607712 2.57129254 7 5 C7 5.66 7 6.32 7 7 C7.99 7.33 8.98 7.66 10 8 C10 8.66 10 9.32 10 10 C11.32 10.66 12.64 11.32 14 12 C14 12.66 14 13.32 14 14 C14.99 14.33 15.98 14.66 17 15 C17 15.66 17 16.32 17 17 C18.32 17.66 19.64 18.32 21 19 C21 19.66 21 20.32 21 21 C21.639375 21.2475 22.27875 21.495 22.9375 21.75 C25 23 25 23 25.62890625 25.078125 C25.75136719 25.71234375 25.87382813 26.3465625 26 27 C21.06749193 22.86224387 16.41140689 18.56631727 11.875 14 C11.28074219 13.40960938 10.68648437 12.81921875 10.07421875 12.2109375 C0 2.11447986 0 2.11447986 0 0 Z " fill="#0A0D2E" transform="translate(96,221)"/>
<path d="M0 0 C5.99500997 4.96194855 11.46427037 10.3476624 16.9375 15.875 C17.81212891 16.75414062 18.68675781 17.63328125 19.58789062 18.5390625 C21.72757048 20.6904346 23.86486597 22.84411792 26 25 C25.67 25.66 25.34 26.32 25 27 C24.45730469 26.44570312 23.91460937 25.89140625 23.35546875 25.3203125 C22.64003906 24.59585938 21.92460937 23.87140625 21.1875 23.125 C20.47980469 22.40570313 19.77210938 21.68640625 19.04296875 20.9453125 C16.95600806 18.84641063 16.95600806 18.84641063 14 17 C14 16.34 14 15.68 14 15 C13.34 15 12.68 15 12 15 C12 14.34 12 13.68 12 13 C11.34 13 10.68 13 10 13 C10 12.34 10 11.68 10 11 C9.40703125 10.7421875 8.8140625 10.484375 8.203125 10.21875 C5.82339035 8.90230105 4.49021208 7.57419218 2.75 5.5 C2.22921875 4.8915625 1.7084375 4.283125 1.171875 3.65625 C0 2 0 2 0 0 Z " fill="#060517" transform="translate(154,125)"/>
<path d="M0 0 C3.77468671 0.56620301 5.47551893 2.12268981 8.109375 4.81640625 C8.86347656 5.58017578 9.61757813 6.34394531 10.39453125 7.13085938 C11.17183594 7.93330078 11.94914062 8.73574219 12.75 9.5625 C13.54277344 10.36880859 14.33554687 11.17511719 15.15234375 12.00585938 C17.10847046 13.99733778 19.05725719 15.99547721 21 18 C20.01 18.33 19.02 18.66 18 19 C14.99599642 16.02484693 11.99747845 13.04422593 9 10.0625 C8.14148437 9.21236328 7.28296875 8.36222656 6.3984375 7.48632812 C5.58632813 6.67744141 4.77421875 5.86855469 3.9375 5.03515625 C3.18339844 4.2862915 2.42929687 3.53742676 1.65234375 2.76586914 C0 1 0 1 0 0 Z " fill="#0A1936" transform="translate(47,294)"/>
<path d="M0 0 C0.66 0 1.32 0 2 0 C2 0.66 2 1.32 2 2 C2.556875 2.226875 3.11375 2.45375 3.6875 2.6875 C6.66159588 4.37550036 8.72008865 6.46676517 11 9 C11 9.66 11 10.32 11 11 C11.598125 11.268125 12.19625 11.53625 12.8125 11.8125 C14.99847854 12.99917406 16.41332594 14.09599113 18 16 C18 16.66 18 17.32 18 18 C14.98984706 16.6489735 12.88032534 15.13664313 10.546875 12.8125 C9.928125 12.19632812 9.309375 11.58015625 8.671875 10.9453125 C7.72054688 9.98238281 7.72054688 9.98238281 6.75 9 C6.1003125 8.35804688 5.450625 7.71609375 4.78125 7.0546875 C4.16765625 6.43851562 3.5540625 5.82234375 2.921875 5.1875 C2.08027832 4.34251953 2.08027832 4.34251953 1.22167969 3.48046875 C0 2 0 2 0 0 Z " fill="#0E1738" transform="translate(277,385)"/>
<path d="M0 0 C2.89852365 1.31307372 4.98277217 2.72684638 7.234375 4.96875 C8.09482422 5.82533203 8.09482422 5.82533203 8.97265625 6.69921875 C9.85244141 7.59060547 9.85244141 7.59060547 10.75 8.5 C11.35199219 9.09425781 11.95398438 9.68851562 12.57421875 10.30078125 C13.14269531 10.87183594 13.71117187 11.44289063 14.296875 12.03125 C14.81604492 12.55267578 15.33521484 13.07410156 15.87011719 13.61132812 C17 15 17 15 17 17 C14.10147635 15.68692628 12.01722783 14.27315362 9.765625 12.03125 C8.90517578 11.17466797 8.90517578 11.17466797 8.02734375 10.30078125 C7.44082031 9.70652344 6.85429687 9.11226563 6.25 8.5 C5.64800781 7.90574219 5.04601562 7.31148438 4.42578125 6.69921875 C3.85730469 6.12816406 3.28882813 5.55710937 2.703125 4.96875 C2.18395508 4.44732422 1.66478516 3.92589844 1.12988281 3.38867188 C0 2 0 2 0 0 Z " fill="#0C1230" transform="translate(207,282)"/>
<path d="M0 0 C1.91796875 1.09765625 1.91796875 1.09765625 4.73046875 3.09765625 C4.73046875 3.75765625 4.73046875 4.41765625 4.73046875 5.09765625 C-0.01953125 3.22265625 -0.01953125 3.22265625 -2.26953125 2.09765625 C-8.60011179 1.55976379 -13.78127238 1.53770455 -19.26953125 5.09765625 C-18.26953125 2.09765625 -18.26953125 2.09765625 -16.39453125 0.41015625 C-11.19234414 -1.77476234 -5.3107196 -2.11149092 0 0 Z " fill="#181D27" transform="translate(172.26953125,91.90234375)"/>
<path d="M0 0 C0 0.33 0 0.66 0 1 C-4.67201205 2.20568053 -9.21496292 2.09382426 -14 2 C-14 2.66 -14 3.32 -14 4 C-15.98 4 -17.96 4 -20 4 C-20 3.01 -20 2.02 -20 1 C-13.30324864 -0.03026944 -6.7685324 -0.10152799 0 0 Z " fill="#121923" transform="translate(331,199)"/>
<path d="M0 0 C1.24233398 0.19625977 1.24233398 0.19625977 2.50976562 0.39648438 C3.30189453 0.52990234 4.09402344 0.66332031 4.91015625 0.80078125 C5.99695679 0.98314331 5.99695679 0.98314331 7.10571289 1.16918945 C8.9375 1.6875 8.9375 1.6875 10.9375 3.6875 C10.27105469 3.62691406 9.60460937 3.56632813 8.91796875 3.50390625 C7.53544922 3.37822266 7.53544922 3.37822266 6.125 3.25 C5.13113281 3.1571875 4.13726562 3.064375 3.11328125 2.96875 C1.00816731 2.78231925 -1.09877331 2.61541142 -3.20703125 2.46875 C-4.19058594 2.3965625 -5.17414063 2.324375 -6.1875 2.25 C-7.09757812 2.18941406 -8.00765625 2.12882813 -8.9453125 2.06640625 C-9.64398438 1.94136719 -10.34265625 1.81632813 -11.0625 1.6875 C-11.3925 1.0275 -11.7225 0.3675 -12.0625 -0.3125 C-7.80533812 -1.73155396 -4.35476716 -0.75246563 0 0 Z " fill="#0C0F18" transform="translate(300.0625,224.3125)"/>
<path d="M0 0 C4.88048662 1.33370656 8.45118545 3.52470208 12.375 6.625 C12.92027344 7.04523438 13.46554687 7.46546875 14.02734375 7.8984375 C15.35721778 8.92500693 16.67942793 9.96149187 18 11 C17.67 11.66 17.34 12.32 17 13 C14.16289903 11.02619086 11.33097524 9.04508282 8.5 7.0625 C7.68917969 6.49853516 6.87835938 5.93457031 6.04296875 5.35351562 C5.27597656 4.81533203 4.50898438 4.27714844 3.71875 3.72265625 C3.00654297 3.22515869 2.29433594 2.72766113 1.56054688 2.21508789 C1.04556641 1.81410889 0.53058594 1.41312988 0 1 C0 0.67 0 0.34 0 0 Z " fill="#080B18" transform="translate(269,320)"/>
<path d="M0 0 C0 0.66 0 1.32 0 2 C-0.85271484 2.11214844 -0.85271484 2.11214844 -1.72265625 2.2265625 C-7.32392698 3.1803682 -10.54383027 4.75962424 -14.58984375 8.7578125 C-16 10 -16 10 -18 10 C-16.4898214 6.15590902 -14.44335653 4.2456673 -11 2 C-7.36854771 0.73750291 -3.86274923 0 0 0 Z " fill="#141E2E" transform="translate(46,211)"/>
<path d="M0 0 C3.44748958 0.64047398 5.84644185 1.99705019 8.75 3.9375 C9.94882812 4.72447266 9.94882812 4.72447266 11.171875 5.52734375 C12.07679688 6.25630859 12.07679688 6.25630859 13 7 C13 7.66 13 8.32 13 9 C13.99 9.33 14.98 9.66 16 10 C15.67 10.66 15.34 11.32 15 12 C12.68375565 10.38012331 10.37199918 8.75444257 8.0625 7.125 C7.40314453 6.66480469 6.74378906 6.20460938 6.06445312 5.73046875 C1.11328125 2.2265625 1.11328125 2.2265625 0 0 Z " fill="#080911" transform="translate(252,308)"/>
<path d="M0 0 C-0.99 0.66 -1.98 1.32 -3 2 C-4.5087459 3.13429266 -6.00803343 4.28122591 -7.5 5.4375 C-8.2734375 6.03433594 -9.046875 6.63117188 -9.84375 7.24609375 C-11.68870799 8.74679328 -13.36036875 10.28154033 -15 12 C-15.66 11.67 -16.32 11.34 -17 11 C-15.56564079 9.5385774 -14.12739414 8.08096951 -12.6875 6.625 C-11.88699219 5.81289062 -11.08648437 5.00078125 -10.26171875 4.1640625 C-6.7446177 0.79882246 -4.81140049 -0.2600757 0 0 Z " fill="#0C294D" transform="translate(109,144)"/>
<path d="M0 0 C0 0.66 0 1.32 0 2 C-0.66 2 -1.32 2 -2 2 C-2 2.66 -2 3.32 -2 4 C-2.66 4 -3.32 4 -4 4 C-5.52299523 6.93720508 -6.80100302 9.9168649 -8 13 C-8.33 13 -8.66 13 -9 13 C-9.29240794 9.90805678 -9.2622862 8.40184489 -7.5390625 5.76171875 C-6.90742188 5.07722656 -6.27578125 4.39273438 -5.625 3.6875 C-4.99851562 2.99011719 -4.37203125 2.29273438 -3.7265625 1.57421875 C-2 0 -2 0 0 0 Z " fill="#0F2240" transform="translate(19,230)"/>
<path d="M0 0 C0.66 0 1.32 0 2 0 C0.61735163 2.86867231 -0.92148553 5.56024032 -2.625 8.25 C-3.07101563 8.95640625 -3.51703125 9.6628125 -3.9765625 10.390625 C-4.48316406 11.18726563 -4.48316406 11.18726563 -5 12 C-5.67578125 10.265625 -5.67578125 10.265625 -6 8 C-4.85546875 5.859375 -4.85546875 5.859375 -3.1875 3.75 C-2.37345703 2.69039062 -2.37345703 2.69039062 -1.54296875 1.609375 C-1.03378906 1.07828125 -0.52460938 0.5471875 0 0 Z " fill="#0B1121" transform="translate(250,145)"/>
<path d="M0 0 C4.30764815 1.56641751 8.06171464 3.68336156 12 6 C9 7 9 7 6.73828125 6.00390625 C5.93777344 5.52824219 5.13726562 5.05257813 4.3125 4.5625 C3.50425781 4.08941406 2.69601562 3.61632812 1.86328125 3.12890625 C1.24839844 2.75636719 0.63351562 2.38382812 0 2 C0 1.34 0 0.68 0 0 Z " fill="#0A0F24" transform="translate(333,447)"/>
<path d="M0 0 C0.99 0.33 1.98 0.66 3 1 C0.69 3.31 -1.62 5.62 -4 8 C-4.66 7.67 -5.32 7.34 -6 7 C-4.02 4.69 -2.04 2.38 0 0 Z " fill="#111937" transform="translate(174,184)"/>
<path d="M0 0 C0 0.99 0 1.98 0 3 C-0.515625 3.45375 -1.03125 3.9075 -1.5625 4.375 C-2.2740625 5.179375 -2.2740625 5.179375 -3 6 C-2.76956136 8.65466049 -2.76956136 8.65466049 -2 11 C-3.32 10.34 -4.64 9.68 -6 9 C-6 6 -6 6 -4.6875 4.39453125 C-4.130625 3.87246094 -3.57375 3.35039063 -3 2.8125 C-2.443125 2.28269531 -1.88625 1.75289063 -1.3125 1.20703125 C-0.6628125 0.60955078 -0.6628125 0.60955078 0 0 Z " fill="#0E1828" transform="translate(140,99)"/>
<path d="M0 0 C-1.78953185 0.83790789 -3.58169695 1.67019396 -5.375 2.5 C-6.87160156 3.19609375 -6.87160156 3.19609375 -8.3984375 3.90625 C-11 5 -11 5 -13 5 C-12 2 -12 2 -10.29296875 1.015625 C-9.59816406 0.76296875 -8.90335937 0.5103125 -8.1875 0.25 C-7.15689453 -0.14445312 -7.15689453 -0.14445312 -6.10546875 -0.546875 C-3.71856031 -1.06056958 -2.29362227 -0.76282269 0 0 Z " fill="#0C0F1D" transform="translate(288,124)"/>
<path d="M0 0 C4.29 0.33 8.58 0.66 13 1 C13 1.99 13 2.98 13 4 C8.71 3.01 4.42 2.02 0 1 C0 0.67 0 0.34 0 0 Z " fill="#101013" transform="translate(389,204)"/>
<path d="M0 0 C0.66 0.33 1.32 0.66 2 1 C0.02 3.97 -1.96 6.94 -4 10 C-5 6 -5 6 -4.00390625 4.296875 C-2.66927083 2.86458333 -1.33463542 1.43229167 0 0 Z " fill="#0D1F3A" transform="translate(135,112)"/>
</svg>
