<svg preserveAspectRatio="xMidYMid meet" viewBox="82.80000000000001 82.80000000000001 253.368 232.66800000000003" xmlns="http://www.w3.org/2000/svg" version="1.0" style="max-height: 500px" width="253.368" height="232.66800000000003">
 <g fill="#ffffff">
  <path d="M0 207 l0 -207 207 0 207 0 0 207 0 207 -207 0 -207 0 0 -207z m218.4 18.5 c19.5 -22.1 25.5 -28.3 28.4 -29.3 2.6 -1 8.2 -1.2 19.3 -1 15.3 0.3 15.6 0.3 19.3 3.1 6.9 5.4 9 11 7.9 22.1 -0.6 6.7 -0.8 7.2 -5.4 11.8 -2.6 2.6 -5.7 4.8 -6.8 4.8 -1.1 0 -2.3 0.5 -2.6 1 -0.4 0.6 -9 1 -22.5 1 -13.5 0 -22.1 0.4 -22.5 1 -0.3 0.6 -1.7 1 -2.9 1 -1.6 0 -4.2 2.2 -8.5 7 l-6.3 7 34.4 0 c28.5 0 34.8 -0.3 37.2 -1.5 1.5 -0.8 3.6 -1.5 4.5 -1.5 2.8 0 13.8 -8.7 17.6 -13.8 9.5 -12.8 8.1 -27.3 -3.7 -39.6 -2.9 -3 -6.8 -6 -8.6 -6.7 -2.7 -0.9 -3.2 -1.6 -3.2 -4.1 0 -2.4 1.5 -4.6 6.8 -10.2 8.6 -9.2 11.6 -15.1 11.5 -23.1 -0.1 -15.5 -11.9 -28.3 -29.6 -31.9 -7.8 -1.6 -9.3 -1.2 -11.8 3.3 -1 2 -3 5.2 -4.3 7.2 l-2.5 3.7 6.2 0.6 c13.5 1.6 18.9 6.5 19.5 17.8 0.6 9.2 -0.4 13.2 -3.9 17.3 -4.4 4.9 -10.5 6.5 -25.5 6.5 -15.2 0 -22.3 1.7 -36.8 8.6 -1.6 0.8 -4.4 1.4 -6.3 1.4 -3.2 0 -3.3 -0.2 -3.3 -3.7 0.1 -3.2 3.8 -9.8 22.3 -39.3 l22.3 -35.5 -25.6 -0.3 -25.5 -0.3 -1.9 2.5 c-1.8 2.3 -4.4 8.2 -16.2 36.1 -6 14.2 -9.1 21.5 -12.3 28.7 -1.2 2.6 -2.1 5 -2.1 5.3 0 0.2 -1.2 3 -2.6 6.1 -3.9 8.5 -9.4 21.7 -9.4 22.6 0 0.4 8.1 0.4 18 0.1 l18 -0.6 0 3.4 c0 1.9 -0.4 3.9 -0.9 4.5 -0.5 0.5 -8.1 15.3 -17 32.9 l-16.2 32 14.4 -15 c7.9 -8.2 25.5 -27.6 39.1 -43z m-92.4 1.2 c0 -20.7 0.3 -28.6 1.2 -29.5 0.8 -0.8 5.4 -1.2 13.9 -1.2 l12.7 0 3.5 -8.2 3.4 -8.3 -17.4 -0.3 -17.3 -0.2 0 -20 0 -20 25.3 -0.2 25.2 -0.3 4.1 -8.5 4.1 -8.5 -39 -0.3 c-27.9 -0.1 -39.4 0.1 -40.3 0.9 -1.2 0.9 -1.4 12.5 -1.4 67 l0 65.9 11 0 11 0 0 -28.3z"/>
 </g>
 <g fill="#ffc112">
  <path d="M150 303.6 c0 -0.3 2.4 -5.1 5.4 -10.8 2.9 -5.7 12.9 -25.1 22.1 -43.3 9.2 -18.1 17.3 -33.6 17.9 -34.4 0.9 -1.2 -1.7 -1.3 -17.6 -0.7 -10.3 0.5 -19.1 0.5 -19.6 0.2 -0.9 -0.5 4.4 -14.1 11.4 -29.4 1.3 -2.9 2.4 -5.5 2.4 -5.7 0 -0.3 0.9 -2.7 2.1 -5.3 3.6 -8.2 6.6 -15.2 12.9 -30.2 11.6 -27.4 13.4 -31.5 15.3 -34.3 l1.8 -2.7 30.5 0 c16.7 0 30.4 0.2 30.4 0.5 0 0.3 -10.8 17.9 -24.1 39.1 -13.3 21.2 -23.9 38.7 -23.7 39 0.3 0.2 1.8 -0.2 3.4 -1 14.5 -6.9 21.6 -8.6 36.8 -8.6 15 0 21.1 -1.6 25.5 -6.5 3.3 -3.8 4.6 -8.6 3.8 -14.5 -1.2 -8.8 -8 -13.5 -21.1 -14.7 -4.2 -0.3 -7.6 -0.9 -7.5 -1.2 0 -0.3 1.8 -3.3 3.9 -6.6 2.2 -3.3 4.9 -7.6 6 -9.7 2.5 -4.6 5.7 -5.4 15.1 -3.8 9.5 1.6 19.9 6.9 24.6 12.6 5.8 6.9 7.7 12.4 7.7 22.9 0.1 11.3 -2 15.8 -11.7 26.1 l-6.8 7.2 3.3 1.1 c4.4 1.6 13.4 11.1 16 16.9 2.9 6.5 3.5 18.3 1.4 25.3 -0.9 3 -3.2 7.5 -5.1 10.1 -3.8 5.1 -14.8 13.8 -17.5 13.8 -1 0 -3.1 0.7 -4.7 1.5 -2.6 1.3 -9 1.5 -42.6 1.3 l-39.6 -0.3 8.6 -9.7 c6.2 -7.1 9.2 -9.8 10.9 -9.8 1.2 0 2.6 -0.4 2.9 -1 0.4 -0.6 9 -1 22.5 -1 13.5 0 22.1 -0.4 22.5 -1 0.3 -0.5 1.5 -1 2.6 -1 1.1 0 4.2 -2.2 6.9 -5 4.4 -4.3 5 -5.4 5.1 -9.2 0.3 -9.8 -1.1 -13.1 -7.4 -18.2 -3.8 -3.1 -4.1 -3.1 -16.5 -3.4 -8.8 -0.3 -13.8 0.1 -16.4 1 -2.9 1 -8.9 7.2 -28.4 29.3 -20.5 23.3 -38.6 42.7 -66.5 71.7 -3.3 3.5 -4.9 4.5 -4.9 3.4z"/>
 </g>
 <g fill="#10294e">
  <path d="M101 189.2 c0 -52.2 0.3 -69.1 1.2 -70 0.9 -0.9 12.2 -1.2 44.6 -1.2 l43.3 0 -0.7 2.3 c-0.4 1.2 -2.8 6.5 -5.3 11.7 l-4.6 9.5 -25.2 0.3 -25.3 0.2 0 17 0 17 18.5 0 c10.2 0 18.5 0.2 18.5 0.3 0 0.3 -5.7 14.3 -8.7 21.5 -0.4 0.9 -4 1.2 -13.2 1.2 -8.5 0 -13.1 0.4 -13.9 1.2 -0.9 0.9 -1.2 8.8 -1.2 29.5 l0 28.3 -14 0 -14 0 0 -68.8z"/>
 </g>
</svg>
