<?xml version="1.0" encoding="UTF-8"?>
<svg id="Layer_2" data-name="Layer 2" xmlns="http://www.w3.org/2000/svg" viewBox="0 0 792 612">
  <defs>
    <style>
      .cls-1 {
        fill: #ffc20e;
      }

      .cls-2 {
        fill: #11294c;
      }
    </style>
  </defs>
  <rect class="cls-2" width="792" height="612"/>
  <g>
    <g>
      <path class="cls-1" d="M189.55,255.47v12.91h-35.63v20.45h30.84v12.97h-30.84v33.42h-16v-79.76h51.63Z"/>
      <path class="cls-1" d="M248.54,277.2v58.03h-14.77v-7.33c-1.89,2.51-4.35,4.49-7.38,5.92s-6.34,2.15-9.9,2.15c-4.54,0-8.55-.96-12.05-2.88-3.49-1.92-6.23-4.75-8.22-8.48-1.99-3.73-2.99-8.19-2.99-13.36v-34.04h14.66v31.95c0,4.61,1.15,8.15,3.46,10.63,2.3,2.48,5.45,3.72,9.43,3.72s7.23-1.24,9.53-3.72c2.3-2.48,3.46-6.02,3.46-10.63v-31.95h14.77Z"/>
      <path class="cls-1" d="M307.72,282.91c4.26,4.36,6.39,10.46,6.39,18.28v34.04h-14.66v-32.05c0-4.61-1.15-8.15-3.46-10.63-2.3-2.48-5.45-3.72-9.43-3.72s-7.25,1.24-9.58,3.72c-2.34,2.48-3.51,6.02-3.51,10.63v32.05h-14.66v-58.03h14.66v7.23c1.95-2.51,4.45-4.49,7.49-5.92,3.04-1.43,6.37-2.15,10-2.15,6.91,0,12.5,2.18,16.76,6.55Z"/>
      <path class="cls-1" d="M323.59,290.39c2.34-4.54,5.53-8.03,9.58-10.47,4.05-2.44,8.55-3.67,13.51-3.67,3.77,0,7.37.82,10.79,2.46,3.42,1.64,6.14,3.82,8.17,6.55v-29.8h14.87v79.76h-14.87v-8.59c-1.82,2.86-4.37,5.17-7.65,6.91-3.28,1.74-7.09,2.62-11.42,2.62-4.89,0-9.36-1.26-13.41-3.77-4.05-2.51-7.25-6.06-9.58-10.63-2.34-4.57-3.51-9.83-3.51-15.76s1.17-11.07,3.51-15.61ZM363.66,297.05c-1.4-2.55-3.28-4.5-5.66-5.87-2.37-1.36-4.92-2.04-7.65-2.04s-5.24.66-7.54,1.99c-2.3,1.33-4.17,3.27-5.6,5.81-1.43,2.55-2.15,5.57-2.15,9.06s.72,6.55,2.15,9.17c1.43,2.62,3.32,4.63,5.66,6.02,2.34,1.4,4.83,2.09,7.49,2.09s5.27-.68,7.65-2.04c2.37-1.36,4.26-3.32,5.66-5.87,1.4-2.55,2.09-5.6,2.09-9.17s-.7-6.62-2.09-9.17Z"/>
      <path class="cls-1" d="M412.73,278.98c3.04-1.74,6.51-2.62,10.42-2.62v15.4h-3.88c-4.61,0-8.08,1.08-10.42,3.25-2.34,2.17-3.51,5.94-3.51,11.31v28.91h-14.66v-58.03h14.66v9.01c1.89-3.07,4.35-5.48,7.38-7.23Z"/>
    </g>
    <g>
      <path class="cls-1" d="M540.79,332.2c-4.88-2.7-8.7-6.53-11.48-11.48-2.78-4.95-4.17-10.66-4.17-17.14s1.43-12.19,4.28-17.14c2.86-4.95,6.76-8.78,11.71-11.48,4.95-2.7,10.47-4.06,16.57-4.06s11.62,1.35,16.57,4.06c4.95,2.7,8.86,6.53,11.71,11.48,2.86,4.95,4.29,10.67,4.29,17.14s-1.47,12.19-4.4,17.14c-2.93,4.95-6.9,8.78-11.88,11.48-4.99,2.7-10.57,4.06-16.74,4.06s-11.58-1.35-16.46-4.06ZM565.42,320.2c2.55-1.41,4.59-3.52,6.11-6.34,1.52-2.82,2.29-6.25,2.29-10.28,0-6.02-1.58-10.65-4.74-13.88-3.16-3.24-7.03-4.86-11.6-4.86s-8.4,1.62-11.48,4.86c-3.09,3.24-4.63,7.87-4.63,13.88s1.5,10.65,4.51,13.88c3.01,3.24,6.8,4.86,11.37,4.86,2.89,0,5.62-.7,8.17-2.11Z"/>
      <path class="cls-1" d="M611.78,255.47v79.76h-16v-79.76h16Z"/>
      <path class="cls-1" d="M639.91,290.42v25.27c0,2.13.51,3.68,1.54,4.63,1.03.95,2.76,1.43,5.2,1.43h7.43v13.48h-10.06c-13.48,0-20.23-6.55-20.23-19.66v-25.15h-7.54v-13.14h7.54v-17.44h16.11v17.44h14.17v13.14h-14.17Z"/>
      <path class="cls-1" d="M488.78,288.38c-2.8,0-5.61-.05-8.41.2-2.81.25-5.46.93-8.12,1.85-4.79,1.66-9.22,3.88-10.26,4.92l14.45-23.12,2.4-3.85,8.07-12.91,3.97-6.36h-35.62l-26.05,61.15c2.62,1.83,22.45-1.16,22.45-1.16l-27.5,53.8,26.5-27.66c9.64-10.73,19.65-22.1,25.78-29.09,0,0,1.76-2.03,2.71-3.09,1.94-2.16,6.08-2.24,6.79-2.28s2.42-.04,2.42-.04h3.84c3.89,0,6.97.97,9.26,2.91s3.43,4.63,3.43,8.06-1.09,5.94-3.26,7.77c-2.17,1.83-5.2,2.74-9.08,2.74h-23.1c-3.7,4.17-7.77,8.74-11.62,13.03h37c5.41,0,10.09-.91,14.06-2.74,3.96-1.83,6.99-4.36,9.08-7.6,2.09-3.24,3.14-6.99,3.14-11.26,0-4.72-1.45-8.91-4.34-12.57-2.9-3.66-6.59-5.9-11.08-6.74,4.11-1.29,7.41-3.5,9.88-6.63,2.47-3.12,3.71-7.01,3.71-11.66,0-3.96-1.01-7.5-3.03-10.63-2.02-3.12-4.99-5.56-8.91-7.31-3.75-1.67-8.17-2.54-13.27-2.61l-8.06,12.9h5.04c3.81,0,6.74.88,8.8,2.63,2.06,1.75,3.09,4.23,3.09,7.43s-1.03,5.66-3.09,7.37-4.99,2.57-8.8,2.57h-2.29Z"/>
    </g>
  </g>
</svg>